<svg width="174" height="40" viewBox="0 0 174 40" fill="none" xmlns="http://www.w3.org/2000/svg">
<path d="M99.0115 24.0757L109.05 14.2992H99.163V9.69528H116.075V14.3745L106.034 24.1139H116.266V28.7172H99.0153L99.0115 24.0757ZM91.8789 3.43869H97.1085V8.17155H91.8789V3.43869ZM91.808 9.75268H97.0381V28.7748H91.808V9.75268ZM28.5533 19.2066C28.5742 13.7694 33.0102 9.37686 38.4656 9.39058C43.9212 9.40451 48.335 13.8196 48.3278 19.2568C48.321 24.6936 43.8962 29.0981 38.4407 29.0981C35.8104 29.1019 33.2877 28.0595 31.4314 26.2026C29.5751 24.3454 28.539 21.8272 28.5533 19.2066ZM43.2495 19.2066C43.2495 16.5054 41.1115 14.2576 38.4405 14.2576C35.7302 14.2576 33.6679 16.5028 33.6679 19.2066C33.6679 21.9103 35.7302 24.1557 38.4405 24.1557C41.1115 24.1515 43.2508 21.9078 43.2508 19.2066H43.2495ZM71.9287 9.69528H77.1222V11.8259C78.3425 10.2633 80.2128 9.31504 82.3883 9.31504C86.8943 9.31504 89.6046 12.2064 89.6046 17.1135V28.7174H84.298V17.7987C84.298 15.2498 83.1138 13.7613 80.7861 13.7613C78.8013 13.7613 77.1598 15.13 77.1598 18.3197V28.7058H71.9328L71.9287 9.69528ZM116.563 19.2066C116.563 12.472 121.529 9.30871 125.842 9.30871C128.325 9.30871 130.27 10.2203 131.529 11.5541V9.6955H136.756V28.7177H131.529V26.587C130.27 28.0705 128.246 29.0981 125.766 29.0981C121.719 29.0981 116.563 25.9067 116.563 19.2066ZM131.679 19.1688C131.679 16.353 129.618 14.07 126.793 14.07C123.892 14.07 121.678 16.2382 121.678 19.1688C121.678 22.0987 123.892 24.3039 126.793 24.3039C129.621 24.3039 131.682 21.9831 131.682 19.1688H131.679ZM138.871 9.69528H144.063V11.8259C145.285 10.2633 147.154 9.31504 149.331 9.31504C153.835 9.31504 156.545 12.2064 156.545 17.1135V28.7174H151.238V17.7987C151.238 15.2498 150.062 13.7613 147.727 13.7613C145.742 13.7613 144.1 15.13 144.1 18.3197V28.7058H138.873L138.871 9.69528ZM99.0115 28.7174V24.0757L109.05 14.2992H99.163V9.69528H116.075V14.3745L106.034 24.1139M22.9743 19.0409L22.9024 19.192C21.4584 22.2254 18.8032 23.9652 15.6171 23.9652C10.9973 23.9652 7.38412 20.3266 7.38412 15.6822C7.38412 10.9194 10.9724 7.32896 15.7319 7.32896C18.8161 7.32896 21.159 8.76809 22.6975 11.6086L22.7796 11.7596L27.4346 8.79425L27.3563 8.66384C24.9382 4.56024 20.5918 2.11035 15.7319 2.11035C7.96525 2.11035 2.10938 7.94618 2.10938 15.6849C2.10938 23.551 7.83864 29.2604 15.7319 29.2604C20.819 29.2604 25.3134 26.4465 27.7547 21.7331L27.8279 21.5906L22.9743 19.0409ZM49.6451 19.2066C49.6451 12.472 54.6112 9.30871 58.9237 9.30871C61.4065 9.30871 63.3512 10.3363 64.6107 11.7428V9.6955H69.8378V28.1888C69.8378 33.5535 66.44 37.8905 59.9885 37.8905C55.1402 37.8905 51.5907 35.3781 50.0568 32.4113L54.6766 29.8248C55.6684 31.8029 57.4208 33.0587 59.9821 33.0587C62.8076 33.0587 64.6006 30.8523 64.6006 28.379V26.587C63.3404 28.0705 61.3179 29.0981 58.8374 29.0981C54.7981 29.0981 49.6451 25.9067 49.6451 19.2066ZM64.761 19.1688C64.761 16.353 62.7002 14.07 59.8747 14.07C56.9735 14.07 54.7601 16.2382 54.7601 19.1688C54.7601 22.0987 56.9735 24.3039 59.8747 24.3039C62.7004 24.3039 64.761 21.9831 64.761 19.1688ZM169.425 14.3745V9.69528H165.837V3.42054H160.609V9.69528H157.362V14.3745H160.603V20.4621C160.603 26.6641 162.588 28.7174 168.658 28.7174H169.421V23.8481C166.214 23.8481 165.833 23.3912 165.833 20.4241V14.3745H169.425ZM170.535 5.69064C170.285 5.94133 169.945 6.0825 169.59 6.0825C169.235 6.0825 168.895 5.94133 168.645 5.69064C168.39 5.4427 168.248 5.10128 168.253 4.74635C168.254 4.14475 168.661 3.6189 169.244 3.46422C169.827 3.30955 170.442 3.56467 170.743 4.08608C171.044 4.60771 170.957 5.26566 170.529 5.69064H170.535ZM168.778 3.93901C168.559 4.15129 168.439 4.4446 168.444 4.74909C168.439 5.05464 168.559 5.3488 168.776 5.56446C168.991 5.78032 169.283 5.90187 169.589 5.90187C169.894 5.90187 170.187 5.78032 170.401 5.56446C170.62 5.34985 170.741 5.05507 170.736 4.74909C170.74 4.28423 170.461 3.86367 170.03 3.68558C169.599 3.50769 169.103 3.60792 168.776 3.93901H168.778ZM169.562 4.01328C169.698 4.00632 169.833 4.02405 169.962 4.06541C170.112 4.12491 170.205 4.27558 170.19 4.43531C170.197 4.55011 170.143 4.66047 170.047 4.72462C169.982 4.76197 169.91 4.78581 169.836 4.79488C169.936 4.8048 170.027 4.85692 170.087 4.93816C170.136 5.00316 170.164 5.08186 170.166 5.16332V5.27136C170.166 5.30406 170.166 5.34057 170.166 5.3794C170.167 5.40493 170.17 5.43067 170.178 5.45494L170.187 5.4733H169.945C169.945 5.46844 169.945 5.4638 169.945 5.45895V5.44333V5.39649V5.28064C169.963 5.15234 169.91 5.02447 169.807 4.94597C169.716 4.90778 169.617 4.89174 169.519 4.89913H169.316V5.47351H169.054V4.0135L169.562 4.01328ZM169.841 4.24245C169.743 4.19982 169.635 4.18146 169.528 4.18927H169.308V4.71786H169.542C169.625 4.72187 169.708 4.7109 169.787 4.68537C169.871 4.64781 169.928 4.56973 169.939 4.47899C169.95 4.38826 169.913 4.29858 169.841 4.24245Z" fill="#19183A"/>
</svg>
