<svg width="238" height="45" viewBox="0 0 238 45" fill="none" xmlns="http://www.w3.org/2000/svg">
<g clip-path="url(#clip0_211_1148)">
<path d="M76.1048 17.2505V33.5016H72.8454V22.9316L68.4931 33.5016H66.0231L61.648 22.9316V33.5016H58.3887V17.2505H62.0909L67.2581 29.3338L72.4253 17.2505H76.1048Z" fill="#19183A"/>
<path d="M77.9609 27.0059C77.9609 25.7027 78.2221 24.5472 78.7417 23.5365C79.2613 22.5286 79.9682 21.7507 80.8597 21.2084C81.7512 20.6661 82.7505 20.3936 83.8521 20.3936C84.8146 20.3936 85.6549 20.5866 86.3789 20.9756C87.1001 21.3645 87.6792 21.8529 88.1136 22.4434V20.6036H91.3956V33.5018H88.1136V31.6166C87.6934 32.2213 87.1171 32.7238 86.3789 33.1185C85.6407 33.5131 84.7918 33.7119 83.8294 33.7119C82.742 33.7119 81.754 33.4336 80.8597 32.8743C79.9682 32.315 79.2613 31.5286 78.7417 30.5122C78.2221 29.4958 77.9609 28.3289 77.9609 27.0087V27.0059ZM88.1108 27.0513C88.1108 26.2592 87.9546 25.5806 87.6452 25.0128C87.3357 24.445 86.9155 24.0106 86.3874 23.7096C85.8594 23.4087 85.2944 23.2554 84.6868 23.2554C84.0792 23.2554 83.5228 23.403 83.0117 23.6983C82.5007 23.9936 82.0833 24.4251 81.7654 24.9901C81.4474 25.5579 81.2884 26.2279 81.2884 27.003C81.2884 27.7781 81.4474 28.4566 81.7654 29.0387C82.0833 29.6207 82.5035 30.0664 83.0231 30.3787C83.5426 30.6882 84.0991 30.8443 84.6868 30.8443C85.2745 30.8443 85.8594 30.6939 86.3874 30.3901C86.9155 30.0863 87.3329 29.6519 87.6452 29.0869C87.9546 28.5191 88.1108 27.8406 88.1108 27.0513Z" fill="#19183A"/>
<path d="M95.2027 19.0675C94.6292 19.0675 94.1523 18.8858 93.7718 18.5196C93.3914 18.1534 93.2012 17.7019 93.2012 17.1568C93.2012 16.6117 93.3914 16.1603 93.7718 15.794C94.1523 15.4306 94.6292 15.2461 95.2027 15.2461C95.7762 15.2461 96.2532 15.4278 96.6337 15.794C97.0141 16.1575 97.2043 16.6117 97.2043 17.1568C97.2043 17.7019 97.0141 18.1534 96.6337 18.5196C96.2532 18.883 95.7762 19.0675 95.2027 19.0675ZM96.8097 20.6035V33.5016H93.5504V20.6035H96.8097Z" fill="#19183A"/>
<path d="M98.4082 27.0057C98.4082 25.7025 98.6694 24.547 99.189 23.5363C99.7085 22.5284 100.418 21.7505 101.318 21.2082C102.218 20.6659 103.221 20.3934 104.322 20.3934C105.16 20.3934 105.96 20.5751 106.721 20.9413C107.482 21.3076 108.087 21.7902 108.538 22.395V16.271H111.843V33.4988H108.538V31.5909C108.135 32.2268 107.567 32.7407 106.838 33.1268C106.108 33.5158 105.262 33.7089 104.299 33.7089C103.212 33.7089 102.218 33.4306 101.318 32.8713C100.418 32.312 99.7085 31.5256 99.189 30.5092C98.6694 29.4928 98.4082 28.3259 98.4082 27.0057ZM108.558 27.0511C108.558 26.259 108.402 25.5805 108.092 25.0126C107.783 24.4448 107.363 24.0104 106.835 23.7095C106.307 23.4057 105.742 23.2552 105.134 23.2552C104.527 23.2552 103.97 23.4029 103.459 23.6981C102.948 23.9934 102.531 24.4249 102.213 24.9899C101.895 25.5577 101.736 26.2278 101.736 27.0029C101.736 27.7779 101.895 28.4565 102.213 29.0385C102.531 29.6205 102.951 30.0663 103.47 30.3786C103.99 30.6909 104.546 30.8442 105.134 30.8442C105.722 30.8442 106.307 30.6937 106.835 30.3899C107.363 30.0861 107.78 29.6518 108.092 29.0868C108.402 28.5189 108.558 27.8404 108.558 27.0511Z" fill="#19183A"/>
<path d="M126.244 26.7731C126.244 27.2388 126.213 27.6589 126.15 28.0309H116.722C116.798 28.9621 117.125 29.6918 117.698 30.2198C118.272 30.7479 118.979 31.0119 119.816 31.0119C121.026 31.0119 121.889 30.4924 122.4 29.4533H125.915C125.543 30.694 124.827 31.716 123.774 32.5138C122.718 33.3145 121.423 33.7119 119.887 33.7119C118.647 33.7119 117.531 33.4365 116.546 32.8858C115.56 32.335 114.791 31.5542 114.24 30.5463C113.689 29.5384 113.414 28.3744 113.414 27.0542C113.414 25.734 113.687 24.5473 114.229 23.5394C114.771 22.5315 115.532 21.7536 116.512 21.2113C117.488 20.669 118.615 20.3965 119.887 20.3965C121.159 20.3965 122.212 20.6605 123.181 21.1886C124.149 21.7167 124.904 22.4662 125.438 23.4343C125.974 24.4053 126.241 25.5183 126.241 26.776L126.244 26.7731ZM122.868 25.8419C122.854 25.0044 122.55 24.3315 121.96 23.829C121.369 23.3236 120.648 23.0738 119.794 23.0738C118.987 23.0738 118.309 23.3179 117.755 23.8063C117.204 24.2946 116.866 24.9731 116.742 25.8448H122.865L122.868 25.8419Z" fill="#19183A"/>
<path d="M134.991 20.4189C136.527 20.4189 137.77 20.9044 138.716 21.8726C139.661 22.8436 140.135 24.1978 140.135 25.9353V33.5016H136.876V26.3783C136.876 25.3533 136.62 24.5669 136.106 24.0161C135.595 23.4653 134.897 23.1899 134.011 23.1899C133.125 23.1899 132.401 23.4653 131.882 24.0161C131.362 24.5669 131.101 25.3562 131.101 26.3783V33.5016H127.842V20.6035H131.101V22.2104C131.535 21.6511 132.089 21.2139 132.765 20.8959C133.441 20.5779 134.182 20.4189 134.988 20.4189H134.991Z" fill="#19183A"/>
<path d="M145.543 25.3536C145.543 23.7551 145.904 22.3242 146.625 21.058C147.346 19.7917 148.331 18.8065 149.58 18.1024C150.829 17.3983 152.229 17.0435 153.782 17.0435C155.599 17.0435 157.189 17.5091 158.555 18.4403C159.92 19.3715 160.874 20.6605 161.419 22.3043H157.672C157.3 21.5293 156.775 20.9472 156.099 20.5583C155.423 20.1693 154.645 19.9763 153.759 19.9763C152.814 19.9763 151.971 20.1977 151.233 20.6406C150.494 21.0835 149.921 21.7081 149.509 22.5144C149.098 23.3207 148.893 24.269 148.893 25.3536C148.893 26.4381 149.098 27.3665 149.509 28.1813C149.921 28.9961 150.494 29.6236 151.233 30.0665C151.971 30.5094 152.811 30.7308 153.759 30.7308C154.645 30.7308 155.423 30.5321 156.099 30.1375C156.775 29.7428 157.297 29.1551 157.672 28.3801H161.419C160.877 30.0409 159.926 31.3327 158.569 32.2554C157.212 33.1782 155.616 33.6409 153.785 33.6409C152.232 33.6409 150.832 33.2889 149.583 32.5819C148.334 31.875 147.349 30.8955 146.628 29.6378C145.906 28.3801 145.546 26.952 145.546 25.3536H145.543Z" fill="#19183A"/>
<path d="M175.687 26.7731C175.687 27.2388 175.656 27.6589 175.594 28.0309H166.165C166.242 28.9621 166.568 29.6918 167.142 30.2198C167.715 30.7479 168.422 31.0119 169.26 31.0119C170.469 31.0119 171.332 30.4924 171.843 29.4533H175.358C174.986 30.694 174.271 31.716 173.217 32.5138C172.161 33.3145 170.867 33.7119 169.331 33.7119C168.09 33.7119 166.974 33.4365 165.989 32.8858C165.004 32.335 164.234 31.5542 163.684 30.5463C163.133 29.5384 162.857 28.3744 162.857 27.0542C162.857 25.734 163.13 24.5473 163.672 23.5394C164.215 22.5315 164.975 21.7536 165.955 21.2113C166.932 20.669 168.059 20.3965 169.331 20.3965C170.603 20.3965 171.656 20.6605 172.624 21.1886C173.592 21.7167 174.347 22.4662 174.881 23.4343C175.418 24.4053 175.685 25.5183 175.685 26.776L175.687 26.7731ZM172.312 25.8419C172.297 25.0044 171.994 24.3315 171.403 23.829C170.813 23.3236 170.091 23.0738 169.237 23.0738C168.431 23.0738 167.752 23.3179 167.201 23.8063C166.65 24.2946 166.313 24.9731 166.188 25.8448H172.312V25.8419Z" fill="#19183A"/>
<path d="M184.434 20.4189C185.97 20.4189 187.214 20.9044 188.159 21.8726C189.104 22.8436 189.579 24.1978 189.579 25.9353V33.5016H186.319V26.3783C186.319 25.3533 186.064 24.5669 185.55 24.0161C185.039 23.4653 184.34 23.1899 183.455 23.1899C182.569 23.1899 181.845 23.4653 181.325 24.0161C180.806 24.5669 180.544 25.3562 180.544 26.3783V33.5016H177.285V20.6035H180.544V22.2104C180.979 21.6511 181.532 21.2139 182.208 20.8959C182.884 20.5779 183.625 20.4189 184.431 20.4189H184.434Z" fill="#19183A"/>
<path d="M195.695 23.2807V29.5211C195.695 29.9555 195.8 30.2707 196.01 30.4637C196.22 30.6568 196.572 30.7533 197.069 30.7533H198.582V33.5016H196.532C193.784 33.5016 192.413 32.1672 192.413 29.4984V23.2836H190.877V20.6063H192.413V17.418H195.695V20.6063H198.582V23.2836H195.695V23.2807Z" fill="#19183A"/>
<path d="M212.848 20.6034V33.5015H209.566V31.8719C209.146 32.4312 208.601 32.8684 207.925 33.1864C207.249 33.5044 206.517 33.6634 205.725 33.6634C204.717 33.6634 203.823 33.4504 203.047 33.0217C202.272 32.5959 201.662 31.9656 201.219 31.1365C200.776 30.3075 200.555 29.3167 200.555 28.1668V20.6006H203.814V27.7012C203.814 28.7261 204.07 29.5126 204.583 30.0634C205.097 30.6142 205.793 30.8895 206.679 30.8895C207.564 30.8895 208.286 30.6142 208.797 30.0634C209.308 29.5126 209.566 28.7233 209.566 27.7012V20.6006H212.848V20.6034Z" fill="#19183A"/>
<path d="M218.027 22.605C218.447 21.9207 218.992 21.387 219.668 20.998C220.344 20.6091 221.116 20.416 221.985 20.416V23.8372H221.124C220.099 23.8372 219.327 24.0785 218.808 24.5583C218.288 25.0381 218.027 25.8785 218.027 27.0737V33.4987H214.768V20.6006H218.027V22.6021V22.605Z" fill="#19183A"/>
<path d="M237.286 20.6035L229.303 39.6H225.833L228.627 33.1751L223.457 20.6035H227.114L230.441 29.6149L233.817 20.6035H237.286Z" fill="#19183A"/>
<path fill-rule="evenodd" clip-rule="evenodd" d="M22.7129 22.8546V44.9998L42.0189 33.9272V28.249L27.5394 36.6244V25.5518L42.0189 17.3184V11.6401L22.7129 22.8546Z" fill="#19183A"/>
<path fill-rule="evenodd" clip-rule="evenodd" d="M0 11.6401V33.9272L4.8265 36.7663V19.8736L7.3817 21.4351V38.1859L11.9243 40.7411V23.9903L14.4795 25.5518V42.1606L19.306 44.9998V22.8546L0 11.6401Z" fill="#19183A"/>
<path fill-rule="evenodd" clip-rule="evenodd" d="M3.54883 10.3687L20.9611 20.4419L29.6687 15.4677L12.2564 5.39453L3.54883 10.3687Z" fill="#19183A"/>
<path fill-rule="evenodd" clip-rule="evenodd" d="M31.9402 5.67822L38.896 9.65299L31.9402 13.6277L24.9844 9.65299L31.9402 5.67822Z" fill="#19183A"/>
<path fill-rule="evenodd" clip-rule="evenodd" d="M22.0027 0L28.9585 3.97476L22.0027 7.94953L15.0469 3.97476L22.0027 0Z" fill="#19183A"/>
</g>
<defs>
<clipPath id="clip0_211_1148">
<rect width="237.288" height="45" fill="white"/>
</clipPath>
</defs>
</svg>
