<svg width="200" height="44" viewBox="0 0 200 44" fill="none" xmlns="http://www.w3.org/2000/svg">
<path d="M17.1615 14.4476C18.4065 15.7997 19.0929 17.577 19.0816 19.4189C19.0816 23.517 15.4345 26.7932 10.8445 26.7932C9.18389 26.8092 7.55218 26.3563 6.13519 25.4861C5.15242 26.3195 4.52754 27.3411 4.52754 28.2087C4.52754 29.3502 5.46486 30.1036 6.8396 30.1036H16.5196C19.5019 30.1036 21.5868 31.5191 21.5868 34.0476C21.5868 39.1844 14.287 43.7505 8.67447 43.7505C3.72656 43.7505 0 41.5017 0 38.5052C0 36.4961 2.15868 34.9551 4.66956 34.2873V33.9334C2.90285 33.3626 1.82919 32.1184 1.82919 30.5088C1.82919 28.7966 3.23802 27.0386 5.63528 25.2236C4.673 24.594 3.87955 23.7363 3.32481 22.726C2.77006 21.7158 2.47104 20.584 2.45407 19.4304C2.45407 15.1725 6.14655 11.8164 10.8161 11.8164C15.4857 11.8164 17.1615 14.4476 17.1615 14.4476ZM19.6326 36.4105C19.6326 35.0692 18.7294 34.2816 16.7297 34.2816H7.37927C5.10698 34.2816 3.84585 35.463 3.84585 37.0383C3.84585 39.5269 7.02706 41.3761 11.4978 41.2962C16.2071 41.222 19.6212 39.0531 19.6212 36.4105M14.5597 19.4247C14.5597 15.0469 13.1452 12.4442 10.8331 12.4442C8.39612 12.4442 6.93617 15.0184 6.93617 19.4247C6.93617 23.6426 8.38476 26.1653 10.8218 26.1653C13.1338 26.1653 14.5483 23.7225 14.5483 19.4247" fill="#19183A"/>
<path d="M21.5978 22.2078C21.6369 20.1369 22.2834 18.1235 23.4562 16.4201C24.6291 14.7166 26.2761 13.3987 28.191 12.6315C30.1059 11.8642 32.2036 11.6818 34.2213 12.1069C36.239 12.5321 38.0869 13.5459 39.5337 15.0215C40.9804 16.4971 41.9617 18.3689 42.3545 20.4022C42.7473 22.4356 42.5342 24.5402 41.7419 26.4525C40.9497 28.3647 39.6134 29.9996 37.9005 31.1523C36.1877 32.3049 34.1744 32.9242 32.1128 32.9324C29.3053 32.9038 26.6232 31.7596 24.6529 29.75C22.6825 27.7403 21.5841 25.0287 21.5978 22.2078ZM37.5663 22.2478C37.5663 15.9694 35.6008 12.4307 32.1128 12.4307C28.6248 12.4307 26.6195 15.8552 26.6195 22.2478C26.6195 28.6403 28.5794 32.2989 32.1128 32.2989C35.6462 32.2989 37.5663 28.7544 37.5663 22.2478Z" fill="#19183A"/>
<path d="M45.2667 22.2114C45.3047 20.1395 45.9503 18.125 47.1226 16.42C48.2949 14.7151 49.9418 13.3956 51.857 12.6267C53.7722 11.8578 55.8707 11.6738 57.8895 12.0976C59.9084 12.5214 61.7579 13.5343 63.2065 15.0094C64.6551 16.4844 65.6383 18.3561 66.033 20.39C66.4278 22.4239 66.2165 24.5296 65.4257 26.4434C64.6348 28.3573 63.2996 29.9941 61.5872 31.149C59.8747 32.3039 57.8612 32.9255 55.7988 32.936C52.9888 32.9103 50.3032 31.7677 48.3295 29.7579C46.3558 27.7481 45.2546 25.0348 45.2667 22.2114ZM61.2409 22.2513C61.2409 15.9729 59.2754 12.4342 55.7817 12.4342C52.2881 12.4342 50.2885 15.8588 50.2885 22.2513C50.2885 28.6438 52.254 32.3024 55.7988 32.3024C59.3435 32.3024 61.258 28.758 61.258 22.2513" fill="#19183A"/>
<path d="M68.9365 22.8704C68.9365 16.2039 73.0153 11.8262 78.9403 11.8262C80.8727 11.8134 82.7719 12.3304 84.4335 13.3216L84.4733 4.41199L81.7295 3.27046L89.1429 0V29.3371L91.6935 30.1248L84.4335 33.0813V29.6568C82.3146 31.0323 79.3209 32.9672 77.2133 32.9672C72.2711 32.9672 68.9365 28.8292 68.9365 22.8761M84.4335 29.0175V18.7438C84.2006 15.1195 82.1613 12.5168 79.4515 12.5168C76.0772 12.5168 73.8788 16.1012 73.8788 21.5063C73.8788 27.1055 76.3101 30.7697 79.8833 30.7697C81.1387 30.7697 82.7861 30.022 84.4279 29.0575" fill="#19183A"/>
<path d="M94.5004 32.9598V4.42175L91.751 3.28023L99.17 0.00976562V15.2148C101.289 13.7594 104.232 11.8245 106.271 11.8245C111.293 11.8245 114.707 15.8883 114.707 21.8014C114.707 28.3481 110.668 32.9598 104.271 32.9598C101.829 32.9454 99.4434 32.2198 97.4033 30.8708L94.5004 32.9598ZM110.435 23.1827C110.435 17.8232 107.805 14.1133 104.317 14.1133C103.135 14.1133 101.607 14.821 99.8801 15.8256V26.8127C100.272 30.2373 102.471 32.3263 105.021 32.3263C108.236 32.3263 110.435 28.5421 110.435 23.1941" fill="#19183A"/>
<path d="M118.543 30.7389V16.1902L115.799 15.0887L123.212 11.8125V15.6766C124.666 13.7074 126.825 11.8125 129.137 11.8125C131.103 11.8125 132.438 12.9997 132.438 14.6663C132.438 16.1217 131.534 17.1092 130.273 17.1092C127.961 17.1092 127.762 14.3467 126.234 14.3467C125.098 14.3467 123.996 15.5738 123.212 16.6754V30.7389L126.115 32.4512H116.072L118.543 30.7389Z" fill="#19183A"/>
<path d="M15.0859 14.1684C15.654 12.0337 16.7902 9.72213 18.7216 8.93448C20.3577 8.26669 21.863 8.8032 22.4254 10.1787C22.914 11.3945 22.4936 12.5246 21.4484 12.9526C19.5169 13.7346 18.4262 11.5029 17.1537 12.0223C16.205 12.4104 15.6995 13.8031 15.4154 14.9903" fill="#19183A"/>
<path d="M134.299 28.7698C134.299 24.9058 141.439 22.3031 146.796 19.9744V18.0852C146.796 15.2314 145.029 13.2337 142.598 13.2337C141.735 13.2138 140.886 13.4608 140.167 13.9414C137.929 15.4026 139.508 19.5634 136.457 20.3111C136.137 20.3908 135.804 20.3972 135.481 20.3298C135.158 20.2624 134.855 20.123 134.593 19.9219C134.331 19.7207 134.118 19.4631 133.968 19.1678C133.819 18.8726 133.738 18.5475 133.73 18.2164C133.884 14.4437 142.252 11.8125 145.189 11.8125C148.915 11.8125 151.437 14.301 151.437 17.9254V29.3406L154.022 30.094L146.802 32.9478V28.3817C144.49 30.9045 141.78 32.9478 138.957 32.9478C136.133 32.9478 134.327 31.2355 134.327 28.7698M146.825 27.4685V20.6193C142.513 22.4287 138.94 24.3236 138.94 27.2801C138.917 27.6959 138.981 28.1118 139.128 28.5013C139.275 28.8907 139.501 29.245 139.792 29.5416C140.083 29.8382 140.432 30.0705 140.818 30.2236C141.203 30.3767 141.616 30.4472 142.03 30.4307C143.734 30.4307 145.325 29.1294 146.773 27.4742" fill="#19183A"/>
<path d="M156.736 30.739V16.2302L153.986 15.0887L161.405 11.8125V15.3626C163.837 13.7873 166.978 11.8125 168.824 11.8125C172.079 11.8125 174.397 14.1812 174.397 17.7313V30.739L176.829 32.4512H167.058L169.722 30.739V17.9653C169.722 15.7565 168.234 14.0613 166.348 14.0613C164.859 14.0613 163.053 14.9688 161.405 15.9163V30.7561L164.036 32.4684H154.265L156.736 30.739Z" fill="#19183A"/>
<path d="M177.243 22.8704C177.243 16.2039 181.322 11.8262 187.247 11.8262C189.181 11.814 191.082 12.331 192.746 13.3216L192.78 4.41199L190.036 3.27046L197.449 0V29.3371L200 30.1248L192.746 33.0813V29.6568C190.621 31.0323 187.633 32.9672 185.526 32.9672C180.578 32.9672 177.243 28.8292 177.243 22.8761M192.746 29.0175V18.7438C192.507 15.1195 190.474 12.5168 187.758 12.5168C184.384 12.5168 182.185 16.1012 182.185 21.5063C182.185 27.1055 184.622 30.7697 188.19 30.7697C189.445 30.7697 191.093 30.022 192.734 29.0575" fill="#19183A"/>
</svg>
