<svg width="24" height="20" viewBox="0 0 24 20" fill="none" xmlns="http://www.w3.org/2000/svg">
<path d="M23.6164 9.05066L14.9491 0.383216C14.7017 0.135804 14.372 0 14.0204 0C13.6684 0 13.3388 0.135999 13.0914 0.383216L12.3045 1.17033C12.0573 1.41735 11.9211 1.7473 11.9211 2.0991C11.9211 2.45071 12.0573 2.79178 12.3045 3.0388L17.3608 8.10627L1.29657 8.10627C0.572288 8.10627 0 8.67329 0 9.39778L0 10.5105C0 11.235 0.572288 11.8592 1.29657 11.8592L17.4182 11.8592L12.3047 16.955C12.0575 17.2024 11.9213 17.5234 11.9213 17.8752C11.9213 18.2266 12.0575 18.5522 12.3047 18.7995L13.0916 19.584C13.339 19.8314 13.6686 19.9663 14.0206 19.9663C14.3722 19.9663 14.7019 19.8297 14.9493 19.5823L23.6166 10.915C23.8646 10.6668 24.001 10.3355 24 9.98333C24.0008 9.62997 23.8646 9.29846 23.6164 9.05066Z" fill="white"/>
</svg>
