<svg width="162" height="50" viewBox="0 0 162 50" fill="none" xmlns="http://www.w3.org/2000/svg">
<path d="M62.9435 27.2186C63.0939 27.5494 63.2357 27.8931 63.3731 28.241C63.5106 27.8845 63.6481 27.5365 63.8027 27.2014C63.9574 26.8664 64.1163 26.5399 64.2796 26.222L68.8332 17.2693C68.8982 17.1364 68.9837 17.0147 69.0867 16.9085C69.1642 16.827 69.2578 16.7626 69.3616 16.7194C69.4765 16.6793 69.5966 16.6561 69.7182 16.6507C69.8513 16.6507 70.0103 16.6507 70.1864 16.6507H73.3224V34.367H69.7096V24.1642C69.7096 23.6702 69.7354 23.1332 69.7826 22.5619L65.0872 31.6735C64.9579 31.9399 64.7533 32.1624 64.4987 32.3136C64.2391 32.4673 63.9409 32.5433 63.6395 32.5327H63.081C62.7796 32.5426 62.4816 32.4666 62.2218 32.3136C61.9672 32.1624 61.7626 31.9399 61.6333 31.6735L56.9078 22.549C56.9422 22.8239 56.9636 23.1117 56.9808 23.4082C56.998 23.7046 57.0066 23.958 57.0066 24.1814V34.367H53.3809V16.6335H56.5212C56.6757 16.6241 56.8306 16.6241 56.9851 16.6335C57.1081 16.6391 57.2296 16.6622 57.346 16.7023C57.4537 16.7452 57.5516 16.8095 57.6338 16.8913C57.7341 16.9987 57.818 17.1203 57.883 17.2521L62.4452 26.2435C62.6042 26.5485 62.7631 26.8664 62.9135 27.2014" fill="#19183A"/>
<path d="M41.0644 18.2101H40.9613L41.0344 18.1371C42.2877 16.8838 42.9917 15.184 42.9917 13.4116C42.9917 11.6392 42.2877 9.93936 41.0344 8.68608C39.7811 7.4328 38.0813 6.72872 36.3089 6.72872C34.5365 6.72872 32.8367 7.4328 31.5834 8.68608L31.5233 8.75052V8.6689C31.5459 7.77825 31.3899 6.89209 31.0647 6.06263C30.7395 5.23318 30.2515 4.47722 29.6296 3.83929C29.0076 3.20136 28.2643 2.69438 27.4434 2.34822C26.6224 2.00206 25.7405 1.82373 24.8496 1.82373C23.9586 1.82373 23.0767 2.00206 22.2558 2.34822C21.4348 2.69438 20.6915 3.20136 20.0695 3.83929C19.4476 4.47722 18.9596 5.23318 18.6344 6.06263C18.3092 6.89209 18.1533 7.77825 18.1759 8.6689V8.75911L18.1072 8.69467C17.4866 8.07411 16.7499 7.58186 15.9391 7.24601C15.1283 6.91017 14.2593 6.73731 13.3817 6.73731C12.5041 6.73731 11.635 6.91017 10.8242 7.24601C10.0134 7.58186 9.27673 8.07411 8.65617 8.69467C8.03561 9.31523 7.54335 10.0519 7.20751 10.8627C6.87166 11.6735 6.6988 12.5426 6.6988 13.4202C6.6988 14.2978 6.87166 15.1668 7.20751 15.9776C7.54335 16.7884 8.03561 17.5251 8.65617 18.1457L8.70772 18.2015H8.64757C7.76338 18.1703 6.8818 18.3152 6.05409 18.6277C5.22637 18.9402 4.46904 19.4141 3.8261 20.0219C3.18316 20.6297 2.66745 21.3592 2.30895 22.1681C1.95044 22.9769 1.75629 23.849 1.73779 24.7336C1.71928 25.6181 1.87679 26.4975 2.20115 27.3207C2.52552 28.1438 3.01026 28.8943 3.62722 29.5284C4.24417 30.1625 4.98103 30.6677 5.79495 31.0146C6.60887 31.3615 7.48361 31.5431 8.36834 31.5489H8.70772L8.64328 31.6133C7.39 32.8666 6.68592 34.5664 6.68592 36.3388C6.68592 38.1112 7.39 39.811 8.64328 41.0643C9.89656 42.3176 11.5964 43.0217 13.3688 43.0217C15.1412 43.0217 16.841 42.3176 18.0943 41.0643L18.1587 40.9956V41.1073C18.2029 42.8479 18.9254 44.5024 20.1721 45.7179C21.4189 46.9334 23.0912 47.6137 24.8324 47.6137C26.5736 47.6137 28.2459 46.9334 29.4927 45.7179C30.7394 44.5024 31.4619 42.8479 31.5061 41.1073V41.017L31.5705 41.0815C32.8238 42.3348 34.5236 43.0388 36.296 43.0388C38.0684 43.0388 39.7682 42.3348 41.0215 41.0815C42.2748 39.8282 42.9789 38.1284 42.9789 36.356C42.9789 34.5836 42.2748 32.8838 41.0215 31.6305L40.9528 31.5618H41.0516C42.7922 31.5176 44.4467 30.7951 45.6623 29.5483C46.8778 28.3016 47.5581 26.6293 47.5581 24.8881C47.5581 23.1469 46.8778 21.4745 45.6623 20.2278C44.4467 18.9811 42.7922 18.2586 41.0516 18.2144M19.3014 11.4698L24.057 16.2297L22.0852 18.2015H19.3014V11.4698ZM30.4106 38.2848L25.6465 33.5078L27.6226 31.536H30.4106V38.2848ZM30.4106 30.4319H28.7395L30.4149 28.7565L30.4106 30.4319ZM31.5275 23.696L32.7089 24.8773L31.5318 26.0587L31.5275 23.696ZM30.4106 20.9938L28.7395 19.3313H30.4106V20.9938ZM26.0374 18.2015H23.6746L24.8517 17.0201L26.0374 18.2015ZM18.1845 23.6917V26.0544L17.278 25.148L16.9988 24.873L18.1845 23.6874V23.6917ZM19.3014 27.1756V22.5747L22.5534 19.3313H27.1586L30.4149 22.5876V27.1756L27.1586 30.4319H22.5534L19.3014 27.1756ZM26.0374 31.5489L24.856 32.7302L23.6746 31.5489H26.0374ZM31.5318 22.0979V19.3313H38.2678L33.508 24.0869L31.5318 22.0979ZM30.4106 18.1886H27.6226L25.6508 16.2168L30.4106 11.4698V18.1886ZM16.2084 24.0869L11.4528 19.3313H18.1845V22.1151L16.2084 24.0869ZM16.2084 25.6721L16.7539 26.2048L18.206 27.6525V30.4362H11.4528L16.2084 25.6721ZM19.2971 30.4233V28.7565L20.9682 30.4319H19.3014L19.2971 30.4233ZM31.5275 30.4233V27.631L33.508 25.6721L38.2592 30.4319L31.5275 30.4233ZM20.9725 19.3313L19.3014 21.0067V19.3313H20.9725ZM19.3014 31.5489H22.0895L23.6961 33.1512L24.057 33.5078L19.3014 38.2891V31.5489ZM32.3867 9.48941C33.4287 8.44748 34.8418 7.86213 36.3153 7.86213C37.7888 7.86213 39.202 8.44748 40.2439 9.48941C41.2859 10.5313 41.8712 11.9445 41.8712 13.418C41.8712 14.8915 41.2859 16.3047 40.2439 17.3466L39.3848 18.2058H31.5318V10.3486L32.3867 9.48941ZM19.3014 8.68178C19.3014 7.20861 19.8866 5.79578 20.9283 4.75409C21.97 3.7124 23.3828 3.12718 24.856 3.12718C26.3292 3.12718 27.742 3.7124 28.7837 4.75409C29.8254 5.79578 30.4106 7.20861 30.4106 8.68178V9.88034L24.856 15.4349L19.3014 9.88034V8.68178ZM9.47239 9.49801C10.518 8.46307 11.9298 7.88255 13.401 7.88255C14.8722 7.88255 16.284 8.46307 17.3296 9.49801L18.1888 10.3572V18.2015H10.3101L9.45091 17.3423C8.93484 16.8265 8.52547 16.214 8.24616 15.54C7.96686 14.8659 7.8231 14.1434 7.8231 13.4137C7.8231 12.6841 7.96686 11.9616 8.24616 11.2875C8.52547 10.6134 8.93484 10.0009 9.45091 9.48512M8.64757 30.4319H8.41989C7.00103 30.3386 5.67188 29.7051 4.70582 28.6617C3.73977 27.6184 3.21026 26.2445 3.22622 24.8226C3.24218 23.4008 3.80238 22.0391 4.79161 21.0177C5.78084 19.9963 7.12388 19.3928 8.54447 19.3313H9.85472L15.3964 24.8859L9.8805 30.4319H8.64757ZM17.3339 40.2481C16.2931 41.2934 14.8797 41.8825 13.4045 41.8857C11.9294 41.8889 10.5134 41.306 9.46809 40.2653C8.42274 39.2245 7.83366 37.811 7.83044 36.3359C7.82722 34.8608 8.41012 33.4448 9.45091 32.3995L10.3101 31.5403H18.1845V39.3975L17.3339 40.2481ZM30.4106 41.1073C30.4106 42.5804 29.8254 43.9933 28.7837 45.0349C27.742 46.0766 26.3292 46.6619 24.856 46.6619C23.3828 46.6619 21.97 46.0766 20.9283 45.0349C19.8866 43.9933 19.3014 42.5804 19.3014 41.1073V39.8786L24.856 34.324L30.4106 39.8786V41.1073ZM40.2439 40.291C39.1983 41.326 37.7865 41.9065 36.3153 41.9065C34.8441 41.9065 33.4324 41.326 32.3867 40.291L31.5275 39.4318V31.5618H39.3848L40.2439 32.4209C41.2789 33.4666 41.8594 34.8783 41.8594 36.3495C41.8594 37.8207 41.2789 39.2325 40.2439 40.2781M41.0644 30.4448H39.8616L34.2769 24.8859L39.853 19.3313H41.0644C42.5114 19.3716 43.8857 19.9747 44.8949 21.0124C45.9042 22.0501 46.4688 23.4405 46.4688 24.8881C46.4688 26.3356 45.9042 27.7261 44.8949 28.7638C43.8857 29.8015 42.5114 30.4046 41.0644 30.4448Z" fill="#19183A"/>
<path d="M91.1668 19.761C91.1026 19.8767 91.0165 19.9789 90.9133 20.0618C90.8136 20.13 90.6947 20.1646 90.574 20.1606C90.3935 20.1465 90.2221 20.0759 90.0842 19.9587C89.8995 19.8298 89.6546 19.6794 89.3926 19.5291C89.0771 19.3528 88.7447 19.2088 88.4002 19.0995C87.9532 18.9579 87.4858 18.8912 87.017 18.9019C86.5651 18.8928 86.115 18.9596 85.6852 19.0995C85.3345 19.2146 85.0102 19.3986 84.7315 19.6408C84.479 19.863 84.2794 20.139 84.1473 20.4484C84.0131 20.7664 83.9458 21.1085 83.9497 21.4536C83.9332 21.8662 84.0574 22.2722 84.302 22.6049C84.5571 22.9254 84.8741 23.1913 85.2342 23.3868C85.6507 23.6195 86.0897 23.8095 86.5444 23.9538L88.048 24.4522C88.5601 24.6225 89.0621 24.8219 89.5515 25.0493C90.0297 25.2693 90.4727 25.5589 90.8661 25.9085C91.2554 26.2604 91.5721 26.685 91.7983 27.1586C92.0493 27.7291 92.1696 28.3485 92.1506 28.9715C92.1577 29.7058 92.0251 30.4347 91.7596 31.1194C91.5034 31.7496 91.1236 32.3222 90.6427 32.8034C90.1191 33.3171 89.4944 33.7165 88.8084 33.9762C88.0176 34.2726 87.1783 34.4184 86.3339 34.4058C85.7928 34.4064 85.253 34.3517 84.723 34.2425C84.2163 34.1388 83.7213 33.9848 83.2452 33.7829C82.7917 33.5929 82.3597 33.3553 81.9564 33.074C81.5587 32.8054 81.1927 32.4927 80.8652 32.1418L81.5655 30.9304C81.6349 30.8342 81.7225 30.7525 81.8232 30.6898C81.9259 30.6245 82.0452 30.5902 82.1669 30.591C82.3857 30.6129 82.5911 30.7066 82.7511 30.8574C82.9702 31.0335 83.2452 31.2268 83.5674 31.4416C83.9362 31.674 84.3277 31.8683 84.7358 32.0216C85.266 32.2115 85.8268 32.3018 86.3898 32.2879C86.8707 32.2959 87.3496 32.2247 87.8074 32.0774C88.1967 31.9533 88.5554 31.7484 88.8599 31.476C89.1463 31.2136 89.3709 30.8907 89.5172 30.5309C89.6721 30.1415 89.7494 29.7256 89.7449 29.3065C89.764 28.8662 89.6421 28.4313 89.3969 28.065C89.1512 27.7315 88.8342 27.4571 88.469 27.2617C88.054 27.0292 87.6146 26.8433 87.1587 26.7075L85.6552 26.2049C85.1437 26.0426 84.6418 25.8518 84.1516 25.6335C83.6789 25.4178 83.2438 25.1278 82.8628 24.7744C82.4677 24.4136 82.1517 23.9748 81.9349 23.4856C81.6858 22.8679 81.5674 22.2053 81.5869 21.5396C81.5865 20.9187 81.7114 20.3042 81.9543 19.7328C82.1971 19.1614 82.5529 18.645 83.0003 18.2145C83.4975 17.7488 84.0813 17.3854 84.7187 17.1448C85.4448 16.8727 86.2158 16.74 86.9912 16.7539C87.9041 16.744 88.8112 16.9013 89.6675 17.2179C90.4572 17.5127 91.1791 17.9643 91.7897 18.5453L91.1668 19.761Z" fill="#19183A"/>
<path d="M103.337 24.2761C103.275 24.3536 103.204 24.4242 103.127 24.4866C103.04 24.5431 102.938 24.5702 102.835 24.5639C102.687 24.5593 102.545 24.5065 102.431 24.4136C102.26 24.2972 102.084 24.1896 101.902 24.0914C101.656 23.9582 101.397 23.8489 101.129 23.7649C100.768 23.6567 100.393 23.606 100.016 23.6145C99.4909 23.603 98.9696 23.7102 98.4913 23.9281C98.0566 24.1286 97.6786 24.4342 97.3916 24.8174C97.0799 25.2397 96.8523 25.7181 96.7214 26.2264C96.5631 26.835 96.4865 27.462 96.4937 28.0908C96.4852 28.7333 96.5662 29.3738 96.7343 29.9939C96.8709 30.5034 97.1043 30.9817 97.4217 31.403C97.7079 31.7726 98.0793 32.0674 98.5042 32.2622C98.9501 32.461 99.4338 32.5607 99.9219 32.5543C100.346 32.5679 100.77 32.5053 101.172 32.3696C101.46 32.2663 101.735 32.1309 101.993 31.9658C102.18 31.8409 102.361 31.7061 102.534 31.5619C102.65 31.4505 102.803 31.3848 102.963 31.3772C103.047 31.3758 103.13 31.3946 103.204 31.432C103.279 31.4694 103.344 31.5243 103.393 31.592L104.067 32.4512C103.793 32.7796 103.475 33.0687 103.122 33.3104C102.787 33.5614 102.424 33.7719 102.04 33.9376C101.642 34.0927 101.228 34.2064 100.807 34.2769C100.381 34.3485 99.9499 34.3844 99.5181 34.3843C98.7804 34.3883 98.0496 34.2421 97.3701 33.9548C96.713 33.6783 96.1259 33.2585 95.6518 32.7261C95.1414 32.1498 94.7501 31.4782 94.5004 30.75C94.2055 29.8934 94.0602 28.9924 94.0709 28.0866C94.0644 27.2328 94.192 26.3834 94.4489 25.5692C94.6824 24.8363 95.064 24.1593 95.5701 23.5802C96.0759 23.0227 96.6976 22.5828 97.3916 22.2914C98.1755 21.9611 99.0199 21.7987 99.8703 21.8145C100.66 21.8025 101.445 21.9485 102.177 22.2441C102.839 22.5181 103.443 22.9129 103.96 23.4083L103.337 24.2761Z" fill="#19183A"/>
<path d="M109.184 18.2145C109.186 18.4279 109.14 18.639 109.051 18.8331C108.879 19.2146 108.574 19.5201 108.192 19.6923C107.993 19.7743 107.78 19.8166 107.565 19.8168C107.354 19.8171 107.145 19.7747 106.951 19.6923C106.76 19.6069 106.587 19.4875 106.439 19.34C106.292 19.1917 106.174 19.0168 106.091 18.8245C106.009 18.6286 105.967 18.4183 105.967 18.2059C105.966 17.9892 106.008 17.7745 106.091 17.5744C106.175 17.3813 106.293 17.2051 106.439 17.0546C106.588 16.9099 106.761 16.7922 106.951 16.7066C107.145 16.6242 107.354 16.5818 107.565 16.582C107.78 16.5823 107.993 16.6246 108.192 16.7066C108.577 16.8743 108.884 17.1813 109.051 17.5658C109.144 17.7693 109.189 17.991 109.184 18.2145ZM108.755 21.9906V34.2124H106.409V21.9906H108.755Z" fill="#19183A"/>
<path d="M122.175 32.4685C121.884 32.8011 121.547 33.0904 121.175 33.3277C120.799 33.5729 120.395 33.7719 119.972 33.9205C119.545 34.0748 119.105 34.1884 118.657 34.2599C118.214 34.3312 117.766 34.3671 117.317 34.3673C116.516 34.3737 115.722 34.2279 114.976 33.9377C114.271 33.6594 113.635 33.2314 113.111 32.6833C112.563 32.0948 112.145 31.3983 111.882 30.6384C111.579 29.7351 111.433 28.7861 111.453 27.8332C111.445 27.024 111.58 26.2198 111.852 25.4576C112.1 24.755 112.484 24.1083 112.982 23.5545C113.487 23 114.106 22.5605 114.795 22.2657C115.556 21.9452 116.375 21.7858 117.201 21.7975C117.905 21.7912 118.604 21.9165 119.263 22.1669C119.875 22.4004 120.43 22.7622 120.891 23.228C121.365 23.72 121.733 24.3052 121.969 24.9464C122.242 25.6931 122.375 26.484 122.36 27.279C122.383 27.5273 122.341 27.7772 122.24 28.0051C122.19 28.07 122.124 28.1214 122.049 28.1544C121.974 28.1874 121.892 28.201 121.81 28.1941H113.777C113.788 28.8417 113.894 29.4843 114.091 30.1015C114.25 30.6001 114.51 31.0606 114.855 31.4547C115.174 31.8093 115.571 32.0844 116.015 32.258C116.495 32.4404 117.005 32.5307 117.519 32.5243C117.976 32.5335 118.433 32.4727 118.872 32.3439C119.211 32.239 119.541 32.1083 119.86 31.953C120.135 31.8112 120.367 31.6823 120.556 31.5621C120.702 31.4569 120.875 31.3944 121.054 31.3816C121.138 31.3802 121.221 31.399 121.295 31.4364C121.37 31.4738 121.435 31.5287 121.484 31.5964L122.175 32.4685ZM120.238 26.7421C120.243 26.3046 120.176 25.8692 120.04 25.4533C119.916 25.0769 119.717 24.7292 119.456 24.4309C119.196 24.1421 118.877 23.9134 118.52 23.7607C117.92 23.5286 117.268 23.4627 116.634 23.5701C115.999 23.6774 115.406 23.954 114.915 24.3707C114.312 25.0255 113.936 25.8569 113.841 26.7421H120.238Z" fill="#19183A"/>
<path d="M127.082 23.6877C127.341 23.4125 127.618 23.1556 127.911 22.9187C128.802 22.1841 129.923 21.7871 131.077 21.7975C131.686 21.7836 132.291 21.8993 132.852 22.1369C133.348 22.3478 133.789 22.6696 134.14 23.0777C134.498 23.508 134.764 24.0064 134.922 24.5426C135.105 25.1543 135.195 25.79 135.189 26.4285V34.2127H132.83V26.4285C132.875 25.7002 132.662 24.9794 132.229 24.3922C131.998 24.1382 131.711 23.9403 131.392 23.8137C131.072 23.6872 130.728 23.6352 130.386 23.6619C129.796 23.6577 129.214 23.8057 128.698 24.0915C128.149 24.3935 127.655 24.7856 127.237 25.2514V34.2127H124.883V21.9908H126.3C126.443 21.9778 126.585 22.0187 126.699 22.1054C126.812 22.1921 126.89 22.3183 126.915 22.4591L127.082 23.6877Z" fill="#19183A"/>
<path d="M146.921 24.276C146.857 24.3525 146.787 24.423 146.71 24.4865C146.622 24.5436 146.518 24.5708 146.414 24.5639C146.266 24.5586 146.125 24.5059 146.01 24.4135C145.839 24.2971 145.663 24.1896 145.481 24.0913C145.237 23.9573 144.979 23.8479 144.712 23.7648C144.352 23.657 143.976 23.6062 143.6 23.6145C143.073 23.6029 142.55 23.71 142.07 23.9281C141.636 24.1286 141.258 24.4342 140.971 24.8173C140.66 25.2399 140.434 25.7183 140.305 26.2264C139.99 27.4625 139.99 28.7578 140.305 29.9939C140.443 30.5026 140.676 30.9807 140.992 31.4029C141.278 31.7725 141.65 32.0673 142.075 32.2621C142.521 32.4604 143.004 32.5601 143.492 32.5542C143.918 32.5675 144.343 32.5049 144.747 32.3695C145.033 32.2664 145.307 32.1309 145.563 31.9657C145.751 31.8408 145.931 31.706 146.104 31.5619C146.221 31.4514 146.373 31.3859 146.534 31.3772C146.618 31.3758 146.7 31.3946 146.775 31.432C146.85 31.4694 146.914 31.5242 146.964 31.592L147.638 32.4511C147.365 32.7806 147.047 33.0698 146.693 33.3103C146.357 33.5624 145.992 33.773 145.606 33.9375C145.208 34.0932 144.795 34.207 144.373 34.2769C143.947 34.3485 143.516 34.3844 143.084 34.3843C142.347 34.3883 141.616 34.2421 140.936 33.9547C140.28 33.6771 139.693 33.2575 139.218 32.7261C138.709 32.1496 138.319 31.4779 138.071 30.75C137.774 29.8939 137.629 28.9926 137.641 28.0865C137.633 27.2326 137.76 26.3828 138.019 25.5691C138.251 24.8363 138.631 24.1592 139.136 23.5801C139.642 23.0227 140.264 22.5828 140.958 22.2913C141.742 21.9614 142.586 21.799 143.437 21.8145C144.228 21.8021 145.014 21.9482 145.748 22.2441C146.41 22.5248 147.014 22.9286 147.526 23.434L146.921 24.276Z" fill="#19183A"/>
<path d="M159.665 32.4685C159.376 32.801 159.04 33.0903 158.669 33.3277C158.292 33.572 157.889 33.771 157.466 33.9205C157.038 34.0753 156.596 34.1889 156.147 34.2599C155.704 34.3316 155.256 34.3675 154.807 34.3673C154.007 34.3737 153.214 34.2279 152.47 33.9377C151.764 33.6605 151.128 33.2324 150.605 32.6833C150.055 32.0971 149.636 31.3999 149.377 30.6384C149.073 29.7351 148.928 28.7861 148.947 27.8332C148.938 27.0242 149.072 26.22 149.342 25.4576C149.592 24.7492 149.979 24.0967 150.481 23.5373C150.985 22.9839 151.602 22.5445 152.289 22.2485C153.051 21.929 153.869 21.7696 154.695 21.7803C155.399 21.7732 156.099 21.8985 156.757 22.1497C157.37 22.3832 157.927 22.7449 158.389 23.2108C158.863 23.7031 159.228 24.2882 159.463 24.9292C159.737 25.676 159.869 26.4668 159.854 27.2619C159.877 27.5102 159.835 27.76 159.734 27.9879C159.684 28.0531 159.619 28.1047 159.544 28.1377C159.468 28.1708 159.386 28.1843 159.304 28.1769H151.271C151.282 28.8246 151.388 29.4671 151.585 30.0843C151.744 30.5829 152.005 31.0435 152.349 31.4375C152.667 31.7935 153.064 32.0688 153.509 32.2408C153.989 32.4235 154.499 32.5139 155.013 32.5072C155.471 32.5232 155.929 32.4696 156.37 32.3482C156.708 32.2434 157.037 32.1127 157.354 31.9573C157.633 31.8155 157.865 31.6866 158.054 31.5664C158.2 31.4605 158.373 31.398 158.553 31.3859C158.636 31.3852 158.719 31.4044 158.793 31.4417C158.868 31.479 158.933 31.5335 158.982 31.6007L159.665 32.4685ZM157.732 26.7421C157.736 26.3043 157.667 25.869 157.53 25.4533C157.407 25.0771 157.21 24.7295 156.95 24.4309C156.69 24.141 156.369 23.9122 156.01 23.7607C155.41 23.5285 154.759 23.4626 154.126 23.5699C153.492 23.6773 152.899 23.954 152.41 24.3707C151.803 25.0239 151.425 25.8559 151.331 26.7421H157.732Z" fill="#19183A"/>
</svg>
