<svg width="330" height="32" viewBox="0 0 330 32" fill="none" xmlns="http://www.w3.org/2000/svg">
<g clip-path="url(#clip0_211_1172)">
<path d="M321.807 28.0031L327.219 16.0124C328.277 13.6559 328.618 13.1397 329.742 12.8482V12.0405L324.08 12.0489V12.8566C325.945 13.2562 326.154 14.2055 325.296 16.2206L323.123 21.4249L320.408 15.3046C319.833 13.9557 319.917 13.1813 321.899 12.9482V12.0572L314.338 12.0738V12.9648C315.229 13.1896 315.578 13.5643 316.353 15.1714L321.174 25.505L320.375 27.2287C319.917 28.2362 319.484 28.9856 319.001 29.4186C318.651 28.2445 317.993 27.6117 316.961 27.6117C315.928 27.6117 315.037 28.3028 315.037 29.6518C315.037 31.0007 316.136 32.0083 317.427 31.9999C319.259 32.0083 320.408 31.084 321.807 28.0031ZM314.13 24.3975L313.697 23.4816C312.922 23.8313 312.231 23.9979 311.632 24.0062C310.283 24.0062 309.933 23.3234 309.933 22.3741L309.916 13.7226L313.563 13.7142V12.0738L309.916 12.0822L309.908 9.40926H309.392L304.229 12.8066V13.7226H306.327L306.344 23.1235C306.344 24.9888 307.41 25.9963 309.508 25.988C311.14 25.988 312.756 25.4384 314.13 24.3975ZM303.213 24.8222C301.431 24.5641 301.173 24.1977 301.173 22.6156L301.156 11.6075H299.749L295.527 14.372V15.0049H297.568L297.584 22.6239C297.584 24.206 297.301 24.5807 295.544 24.8389V25.7298L303.213 25.7132V24.8222ZM299.1 9.45089C300.307 9.45089 301.281 8.46832 301.281 7.23595C301.281 6.14514 300.44 5.25417 299.325 5.25417C298.059 5.25417 297.11 6.23673 297.118 7.44412C297.118 8.56824 297.951 9.45089 299.1 9.45089ZM294.095 21.4998C294.087 18.8269 291.88 17.9942 289.807 17.3364C287.767 16.6786 286.36 16.2539 286.351 14.7551C286.351 13.9474 286.951 13.2063 288.133 13.198C289.599 13.198 290.898 14.0806 292.447 15.8376L293.196 15.4878L292.097 11.924H291.639L291.123 12.357C290.315 12.0156 289.399 11.8157 288.416 11.8157C285.369 11.824 283.387 13.581 283.395 16.2206C283.404 18.8935 285.61 19.6679 287.684 20.3507C289.724 21.0335 291.131 21.4332 291.139 22.957C291.139 23.9063 290.423 24.6224 289.041 24.6307C287.117 24.6307 285.644 23.3733 283.895 21.1334L283.121 21.4249L284.253 25.9047H284.744L285.577 25.2968C286.526 25.7548 287.592 26.0129 288.766 26.0129C291.689 26.0213 294.104 24.2893 294.095 21.4998ZM279.132 24.8638C277.267 24.5807 277 24.181 277 22.3991L276.992 16.4787C277.566 15.4462 278.108 14.6968 278.682 14.1805C278.682 15.3046 279.465 16.0208 280.439 16.0208C281.414 16.0208 282.363 15.238 282.363 13.7475C282.363 12.4819 281.638 11.7075 280.373 11.7075C278.965 11.7075 277.875 12.8899 276.842 14.5552L276.834 11.6492H275.568L271.405 14.3887V15.0215H273.386L273.403 22.6656C273.403 24.2477 273.145 24.6473 271.513 24.8805V25.7715L279.132 25.7548V24.8638ZM261.129 17.0783C261.129 14.7468 262.104 13.3728 263.994 13.3645C265.318 13.3645 266.15 14.3054 266.5 16.179L261.154 18.0275C261.129 17.7111 261.129 17.3947 261.129 17.0783ZM270.131 23.1818L269.356 22.5823C268.945 23.0546 268.437 23.4329 267.866 23.6915C267.296 23.9501 266.677 24.083 266.051 24.0811C263.403 24.0895 261.912 22.0744 261.354 19.4597L269.972 16.5703C269.798 13.5227 267.549 11.8657 264.702 11.8657C260.705 11.874 257.782 15.0965 257.79 19.0934C257.799 23.0569 260.33 26.0712 264.785 26.0629C267.524 26.0629 269.156 24.8472 270.131 23.1818ZM255.059 16.1373C256.117 13.7808 256.458 13.2646 257.582 12.9731V12.1654L251.92 12.1738V12.9815C253.785 13.3812 253.993 14.3304 253.136 16.3455L250.962 21.5498L248.248 15.4296C247.673 14.0806 247.756 13.3062 249.738 13.0731V12.1821L242.177 12.1987V13.0897C243.068 13.3145 243.443 13.6892 244.193 15.2963L249.122 25.9463H250.613L255.059 16.1373ZM241.944 24.9305C240.162 24.6723 239.904 24.306 239.896 22.7239L239.879 11.7158H238.472L234.25 14.4803V15.1131H236.29L236.307 22.7322C236.307 24.3143 236.024 24.689 234.267 24.9471V25.8381L241.936 25.8214L241.944 24.9305ZM237.839 9.55914C239.047 9.55914 240.021 8.57657 240.021 7.3442C240.021 6.25339 239.18 5.36242 238.064 5.36242C236.798 5.36242 235.849 6.34498 235.857 7.55237C235.849 8.67649 236.69 9.55914 237.839 9.55914ZM223.351 24.9638C221.71 24.7389 221.452 24.3309 221.452 22.7572L221.444 16.1207C222.876 14.8217 224.058 14.1889 225.091 14.1889C226.498 14.1889 226.906 14.905 226.906 16.1956L226.914 22.7488C226.914 24.3309 226.656 24.7306 225.024 24.9638V25.8547L232.41 25.8381V24.9471C230.77 24.7223 230.512 24.3143 230.512 22.7405L230.503 15.8709C230.503 13.5727 229.521 11.9323 226.615 11.9406C224.833 11.9406 223.084 13.0398 221.36 14.5053L221.352 11.7491H220.028L215.865 14.4886V15.1215H217.846L217.863 22.7655C217.863 24.3476 217.605 24.7473 215.973 24.9804V25.8714L223.359 25.8547L223.351 24.9638ZM192 8.1186L192.017 16.7369C192.025 22.3158 194.939 26.1878 202.267 26.1712C209.595 26.1545 212.492 22.2742 212.484 16.8118L212.476 9.88388C212.467 6.51985 213.417 5.65386 215.057 5.19588V4.30491L208.104 4.31324V5.20421C209.744 5.66218 210.694 6.51985 210.702 9.88388L210.71 16.8118C210.719 21.6663 208.162 23.9146 203.341 23.9229C198.545 23.9312 195.955 21.6913 195.947 16.8368L195.93 8.10194C195.93 5.92031 196.555 5.54561 198.37 5.27915V4.32989L189.635 4.34654V5.2958C191.417 5.56226 191.992 5.93697 192 8.1186ZM168.976 25.0637C167.336 24.8389 167.078 24.4309 167.078 22.8571L167.069 16.2206C168.502 14.9216 169.684 14.2888 170.717 14.2888C172.124 14.2888 172.532 15.0049 172.532 16.2955L172.54 22.8488C172.54 24.4309 172.282 24.8305 170.65 25.0637V25.9547L178.036 25.938V25.047C176.396 24.8222 176.137 24.4142 176.137 22.8404L176.129 15.9708C176.129 13.6726 175.147 12.0322 172.24 12.0405C170.459 12.0405 168.71 13.1397 166.986 14.6052L166.978 11.849H165.654L161.491 14.5885V15.2214H163.472L163.489 22.8654C163.489 24.4475 163.231 24.8472 161.599 25.0803V25.9713L168.985 25.9547L168.976 25.0637ZM157.544 25.0803C155.678 24.7972 155.412 24.3975 155.412 22.6156L155.404 16.6952C155.978 15.6627 156.519 14.9133 157.094 14.397C157.094 15.5211 157.877 16.2373 158.851 16.2373C159.825 16.2373 160.774 15.4545 160.774 13.964C160.774 12.6984 160.05 11.924 158.784 11.924C157.377 11.924 156.286 13.1064 155.254 14.7717L155.245 11.8657H153.98L149.816 14.6052V15.238H151.798L151.815 22.8821C151.815 24.4642 151.557 24.8638 149.925 25.097V25.988L157.544 25.9713V25.0803ZM139.541 17.3031C139.541 14.9716 140.515 13.5976 142.405 13.5893C143.729 13.5893 144.562 14.5303 144.912 16.4038L139.566 18.2523C139.541 17.9359 139.541 17.6195 139.541 17.3031ZM148.542 23.4067L147.768 22.8071C147.357 23.2794 146.849 23.6577 146.278 23.9163C145.708 24.1749 145.088 24.3078 144.462 24.3059C141.814 24.3143 140.324 22.2992 139.766 19.6846L148.384 16.7952C148.209 13.7475 145.961 12.0905 143.113 12.0905C139.116 12.0988 136.194 15.3213 136.202 19.3182C136.21 23.2818 138.742 26.2961 143.196 26.2877C145.936 26.2794 147.568 25.072 148.542 23.4067ZM135.269 24.7223L134.836 23.8063C134.062 24.1477 133.371 24.3226 132.771 24.3226C131.422 24.3226 131.073 23.6398 131.073 22.6905L131.056 14.039L134.703 14.0306V12.3903L131.056 12.3986L131.048 9.72567H130.531L125.369 13.123V14.039H127.467L127.484 23.44C127.484 25.3052 128.55 26.3127 130.648 26.3044C132.288 26.3044 133.895 25.7548 135.269 24.7223ZM124.403 21.8079C124.394 19.135 122.188 18.3023 120.115 17.6445C118.074 16.9867 116.667 16.562 116.659 15.0632C116.659 14.2555 117.258 13.5144 118.441 13.5061C119.906 13.5061 121.197 14.3887 122.754 16.1457L123.504 15.7959L122.404 12.2404H121.946L121.43 12.6734C120.622 12.332 119.706 12.1321 118.724 12.1321C115.676 12.1405 113.695 13.8974 113.703 16.537C113.711 19.2099 115.918 19.9843 117.991 20.6671C120.031 21.3499 121.438 21.7496 121.447 23.2734C121.447 24.2227 120.731 24.9388 119.348 24.9471C117.425 24.9471 115.951 23.6898 114.202 21.4498L113.428 21.7413L114.561 26.2211H115.052L115.884 25.6133C116.834 26.0712 117.9 26.3294 119.074 26.3294C121.996 26.3294 124.411 24.5974 124.403 21.8079ZM102.278 22.3908C102.278 20.9253 102.936 20.2341 106.3 19.3099L106.309 23.4733C105.509 24.1061 104.785 24.3975 104.069 24.3975C102.945 24.4059 102.278 23.8063 102.278 22.3908ZM108.607 26.2378C109.839 26.2378 111.163 25.6549 112.021 25.0554L111.763 24.2477C110.355 24.5058 109.839 24.306 109.839 23.3567L109.823 15.6877C109.823 13.3895 108.807 12.1571 105.559 12.1571C101.912 12.1654 99.2391 14.1222 99.2475 15.9625C99.2475 16.8534 99.8553 17.6029 100.888 17.5945C102.062 17.5945 102.636 16.8118 102.811 16.0374C102.986 15.1464 102.695 14.4886 102.262 14.1139C102.978 13.7642 103.694 13.5976 104.443 13.5893C105.676 13.5893 106.284 14.014 106.284 15.1381L106.292 18.0109C101.154 19.2849 98.7978 20.409 98.7978 23.1402C98.7978 25.2386 100.155 26.3543 102.278 26.3543C103.627 26.3543 105.176 25.7715 106.5 24.7389C106.708 25.6882 107.374 26.2378 108.607 26.2378ZM88.2144 17.3947C88.2144 15.0632 89.1887 13.6892 91.0788 13.6809C92.4028 13.6809 93.2355 14.6218 93.5852 16.4954L88.2394 18.3439C88.2144 18.0192 88.2144 17.7028 88.2144 17.3947ZM97.2241 23.4982L96.4497 22.8987C96.0384 23.371 95.5303 23.7493 94.9599 24.0079C94.3895 24.2665 93.7702 24.3994 93.1439 24.3975C90.496 24.4059 89.0055 22.3908 88.4476 19.7762L97.0658 16.8867C96.891 13.8391 94.6427 12.1821 91.795 12.1821C87.7981 12.1904 84.8754 15.4129 84.8837 19.4098C84.892 23.3733 87.4234 26.3877 91.8782 26.3793C94.6094 26.371 96.2498 25.1636 97.2241 23.4982ZM74.3503 25.2302C72.7099 25.0054 72.4517 24.5974 72.4517 23.0236L72.4434 16.3538C73.8173 15.0882 74.8832 14.4553 76.0906 14.447C77.4978 14.447 77.9058 15.1631 77.9058 16.4538L77.9141 23.007C77.9141 24.5891 77.656 24.9888 76.0239 25.2219V26.1129L83.4098 26.0962V25.2052C81.7695 24.9804 81.5113 24.5724 81.5113 22.9986L81.503 16.129C81.503 13.8308 80.5204 12.1904 77.6144 12.1987C75.8574 12.1987 74.1421 13.2396 72.4434 14.6801L72.4268 3.29736H71.3609L66.7395 6.32V6.95284H68.8379L68.8629 23.0153C68.8629 24.5974 68.6047 24.9971 66.9727 25.2302V26.1212L74.3586 26.1045L74.3503 25.2302ZM66.0984 24.8472L65.6654 23.9312C64.891 24.281 64.1998 24.4475 63.6003 24.4558C62.2514 24.4558 61.9016 23.773 61.9016 22.8238L61.885 14.1639L65.5321 14.1555V12.5152L61.885 12.5235L61.8767 9.85058H61.3604L56.1978 13.2479V14.1639H58.2961L58.3128 23.5649C58.3128 25.4301 59.3786 26.4376 61.477 26.4293C63.1174 26.4293 64.7244 25.8797 66.0984 24.8472ZM52.0177 25.2719C50.1525 24.9887 49.886 24.5891 49.886 22.8071L49.8777 16.8867C50.4523 15.8542 50.9935 15.1048 51.568 14.5885C51.568 15.7127 52.3508 16.4288 53.325 16.4288C54.2992 16.4288 55.2485 15.646 55.2485 14.1555C55.2485 12.8899 54.5241 12.1155 53.2584 12.1155C51.8512 12.1155 50.7603 13.2979 49.7278 14.9632L49.7195 12.0572H48.4538L44.2904 14.7967V15.4296H46.2722L46.2888 23.0736C46.2888 24.6557 46.0307 25.0554 44.3986 25.2885V26.1795L52.0177 26.1628V25.2719ZM31.2589 17.9193C31.2506 15.3296 32.3747 13.6892 34.7312 13.6892C37.7788 13.6809 38.6781 17.4197 38.6781 20.8337C38.6864 23.4233 37.5623 25.0637 35.2058 25.0637C32.1665 25.0803 31.2672 21.3416 31.2589 17.9193ZM42.267 19.1933C42.2587 15.4296 39.7273 12.2737 35.0976 12.282C30.4429 12.2903 27.6617 15.6544 27.6701 19.568C27.6784 23.3317 30.2097 26.4876 34.8395 26.4793C39.4941 26.4709 42.2753 23.1069 42.267 19.1933ZM23.515 10.2336C23.5066 6.86957 24.4559 6.00358 26.0963 5.54561V4.65464L19.1434 4.66296V5.55393C20.7838 6.01191 21.733 6.86957 21.7413 10.2336L21.758 20.3507L7.06948 5.57891C6.26177 4.77954 5.94536 4.68794 5.42909 4.68794L0 4.7046V5.59557C1.18241 5.71214 1.86521 6.17012 3.22248 7.46078C3.65548 7.86046 4.05517 8.35175 4.05517 9.15112L4.07182 20.6755C4.08015 24.0395 3.13089 24.9055 1.4905 25.3635V26.2544L8.4434 26.2461V25.3551C6.80302 24.8972 5.85376 24.0395 5.84543 20.6755L5.82878 9.80894L22.3492 26.3627H23.5233L23.515 10.2336Z" fill="#19183A"/>
</g>
<defs>
<clipPath id="clip0_211_1172">
<rect width="329.742" height="32" fill="white"/>
</clipPath>
</defs>
</svg>
