<svg width="193" height="192" viewBox="0 0 193 192" fill="none" xmlns="http://www.w3.org/2000/svg">
<path d="M99.8237 12.1371L100.655 0.246094L102.219 0.355472L101.488 10.8099L106.708 11.1749L106.607 12.6114L99.8237 12.1371Z" fill="#19183A"/>
<path d="M110.292 13.1981L112.771 1.53861L120.361 3.15201L120.062 4.56054L114.005 3.27315L113.22 6.96663L118.964 8.18749L118.664 9.59603L112.921 8.37517L112.125 12.1156L118.182 13.403L117.883 14.8115L110.292 13.1981Z" fill="#19183A"/>
<path d="M120.702 15.5945L128.794 5.85445L130.538 6.48924L130.475 19.1515L128.896 18.5769L128.937 15.6119L124.156 13.8717L122.281 16.1691L120.702 15.5945ZM125.114 12.6882L128.963 14.0891L129.067 7.16272L129.488 7.31595L125.114 12.6882Z" fill="#19183A"/>
<path d="M131.631 19.7593L137.227 9.23453L140.674 11.0673C141.738 11.6332 142.551 12.3431 143.112 13.197C143.672 14.0508 143.959 14.9885 143.972 16.01C143.989 17.0221 143.715 18.0602 143.149 19.1245C142.588 20.1793 141.881 20.9871 141.027 21.5478C140.173 22.1086 139.233 22.4 138.207 22.422C137.185 22.4346 136.142 22.1579 135.078 21.5921L131.631 19.7593ZM133.692 19.2239L135.768 20.3281C136.55 20.7438 137.311 20.937 138.051 20.9078C138.801 20.8837 139.489 20.6576 140.115 20.2295C140.747 19.792 141.278 19.1682 141.708 18.3583C142.144 17.5389 142.36 16.7474 142.355 15.9838C142.359 15.2252 142.16 14.5331 141.755 13.9074C141.366 13.2773 140.785 12.7569 140.012 12.3463L137.936 11.2421L133.692 19.2239Z" fill="#19183A"/>
<path d="M145.503 28.0369L152.51 18.3934L153.778 19.3151L146.772 28.9585L145.503 28.0369Z" fill="#19183A"/>
<path d="M151.302 32.4748L159.583 23.9003L160.526 24.8117L158.762 36.4974L158.291 36.1322L165.027 29.1575L166.166 30.2578L157.886 38.8324L156.942 37.921L158.774 26.2115L159.21 26.5433L152.43 33.5641L151.302 32.4748Z" fill="#19183A"/>
<path d="M162.462 44.7068C161.944 44.0427 161.582 43.3372 161.377 42.5902C161.181 41.8365 161.14 41.0831 161.256 40.3297C161.371 39.5764 161.631 38.8522 162.035 38.1571C162.447 37.4705 163.001 36.8546 163.699 36.3096C164.405 35.7579 165.14 35.3657 165.906 35.133C166.672 34.9002 167.434 34.8191 168.193 34.8894C168.952 34.9598 169.669 35.1846 170.344 35.5639C171.028 35.9367 171.629 36.455 172.148 37.1191C172.654 37.7663 172.993 38.4349 173.167 39.125C173.347 39.8234 173.395 40.4903 173.309 41.1257C173.23 41.7696 173.044 42.328 172.75 42.8011L171.341 42.1152C171.717 41.4697 171.883 40.7911 171.842 40.0793C171.8 39.3674 171.52 38.6795 171.001 38.0155C170.489 37.3598 169.877 36.8972 169.165 36.6274C168.46 36.3661 167.719 36.3092 166.94 36.4568C166.162 36.6045 165.404 36.9672 164.664 37.5452C163.933 38.1165 163.401 38.7618 163.07 39.481C162.745 40.2086 162.624 40.946 162.707 41.6934C162.797 42.4491 163.097 43.1547 163.61 43.8104C164.056 44.3819 164.582 44.8036 165.187 45.0755C165.792 45.3474 166.414 45.4503 167.053 45.3844C167.691 45.3184 168.292 45.0655 168.856 44.6255L169.436 44.1723L169.349 45.1534L166.512 41.5223L167.584 40.685L170.953 44.997L170.121 45.6471C169.465 46.1593 168.784 46.5088 168.077 46.6956C167.37 46.8824 166.673 46.926 165.986 46.8265C165.308 46.7204 164.664 46.4856 164.055 46.122C163.446 45.7585 162.915 45.2867 162.462 44.7068Z" fill="#19183A"/>
<path d="M172.049 59.4759L183.101 55.0106L183.64 56.3458L179.423 62.8642L179.147 62.1818L186.697 63.9116L187.237 65.2467L176.185 69.7121L175.591 68.2434L184.804 64.5213L184.85 65.1065L177.404 63.3347L177.356 63.216L181.5 56.8137L181.849 57.2077L172.636 60.9298L172.049 59.4759Z" fill="#19183A"/>
<path d="M176.629 71.2943L189.228 72.5556L189.677 74.3565L179.145 81.3853L178.738 79.7552L181.219 78.1308L179.988 73.194L177.035 72.9243L176.629 71.2943ZM181.505 73.3269L182.496 77.3012L188.296 73.5136L188.405 73.9482L181.505 73.3269Z" fill="#19183A"/>
<path d="M179.432 84.0501L191.286 82.8042L191.726 86.9891C191.809 87.7741 191.733 88.4793 191.498 89.1046C191.263 89.7298 190.888 90.2359 190.371 90.6227C189.855 91.0202 189.225 91.2579 188.483 91.336C187.645 91.424 186.912 91.2866 186.284 90.9236C185.656 90.5606 185.176 90.0318 184.846 89.3372L180.33 92.5951L180.139 90.7811L184.974 87.3448L184.478 88.4427L184.131 85.1329L179.595 85.6096L179.432 84.0501ZM185.563 84.9824L185.844 87.6557C185.893 88.1224 186.026 88.5214 186.243 88.8525C186.46 89.1836 186.748 89.4268 187.108 89.5821C187.469 89.7479 187.872 89.8075 188.317 89.7606C188.773 89.7127 189.155 89.5707 189.463 89.3345C189.782 89.1079 190.014 88.8101 190.157 88.4411C190.301 88.072 190.348 87.6541 190.299 87.1874L190.018 84.5141L185.563 84.9824Z" fill="#19183A"/>
<path d="M180.293 95.6306L192.206 96.0466L192.151 97.6136L185.451 97.3797L185.624 97.0015L191.965 102.922L191.897 104.889L186.547 99.9155L187.664 100.035L179.976 104.713L180.041 102.842L185.833 99.2662L183.756 97.3205L180.238 97.1976L180.293 95.6306Z" fill="#19183A"/>
<path d="M179.564 107.141L191.303 109.211L189.956 116.853L188.537 116.603L189.613 110.505L185.894 109.85L184.874 115.633L183.456 115.382L184.476 109.6L180.71 108.936L179.635 115.034L178.217 114.784L179.564 107.141Z" fill="#19183A"/>
<path d="M176.163 121.839L186.13 125.077L187.129 122.003L188.498 122.448L186.026 130.057L184.657 129.612L185.641 126.584L175.674 123.345L176.163 121.839Z" fill="#19183A"/>
<path d="M171.798 132.699L182.512 137.925L181.825 139.334L171.111 134.108L171.798 132.699Z" fill="#19183A"/>
<path d="M168.438 139.18L178.32 145.846L177.586 146.934L165.771 147.225L166.049 146.698L174.088 152.12L173.202 153.433L163.32 146.768L164.053 145.68L175.903 145.451L175.652 145.938L167.561 140.48L168.438 139.18Z" fill="#19183A"/>
<path d="M158.328 152.295C158.892 151.669 159.524 151.19 160.224 150.859C160.932 150.535 161.667 150.364 162.429 150.347C163.191 150.33 163.949 150.46 164.704 150.737C165.451 151.023 166.154 151.462 166.812 152.054C167.478 152.654 167.992 153.311 168.354 154.024C168.716 154.738 168.929 155.474 168.991 156.234C169.053 156.994 168.957 157.739 168.7 158.47C168.452 159.208 168.046 159.89 167.482 160.516C166.932 161.127 166.333 161.577 165.684 161.868C165.027 162.167 164.378 162.329 163.738 162.355C163.09 162.389 162.508 162.303 161.991 162.096L162.422 160.589C163.123 160.847 163.82 160.893 164.514 160.729C165.207 160.564 165.836 160.168 166.4 159.542C166.957 158.924 167.306 158.241 167.448 157.493C167.583 156.753 167.51 156.013 167.23 155.273C166.949 154.532 166.46 153.848 165.763 153.22C165.073 152.599 164.345 152.188 163.58 151.986C162.807 151.792 162.059 151.801 161.338 152.013C160.609 152.232 159.966 152.651 159.41 153.269C158.924 153.808 158.6 154.399 158.438 155.042C158.275 155.685 158.282 156.316 158.458 156.933C158.633 157.551 158.987 158.099 159.518 158.577L160.065 159.07L159.084 159.155L162.167 155.731L163.178 156.641L159.516 160.707L158.732 160.001C158.113 159.444 157.651 158.834 157.344 158.17C157.037 157.506 156.873 156.828 156.852 156.134C156.839 155.447 156.958 154.773 157.211 154.11C157.463 153.447 157.835 152.842 158.328 152.295Z" fill="#19183A"/>
<path d="M149.083 158.41L149.546 158.961C149.347 159.239 149.262 159.527 149.289 159.824C149.316 160.122 149.458 160.441 149.716 160.782L150.267 160.319L151.502 161.79L150.313 162.787L149.439 161.745C148.945 161.157 148.67 160.58 148.613 160.015C148.549 159.457 148.705 158.922 149.083 158.41Z" fill="#19183A"/>
<path d="M134.275 171.008L139.123 181.898L134.548 183.934C133.895 184.225 133.283 184.358 132.711 184.332C132.13 184.311 131.617 184.142 131.172 183.826C130.723 183.524 130.368 183.081 130.107 182.496C129.869 181.96 129.793 181.41 129.88 180.846C129.962 180.296 130.217 179.78 130.645 179.297L130.9 179.832C130.354 179.864 129.865 179.802 129.433 179.644C128.995 179.5 128.614 179.273 128.289 178.963C127.968 178.662 127.714 178.302 127.528 177.883C127.081 176.879 127.051 175.947 127.438 175.085C127.825 174.224 128.574 173.546 129.685 173.052L134.275 171.008ZM133.428 172.961L130.213 174.393C129.579 174.675 129.148 175.071 128.92 175.581C128.692 176.092 128.708 176.639 128.968 177.224C129.229 177.809 129.625 178.187 130.157 178.359C130.693 178.54 131.278 178.49 131.911 178.208L135.127 176.776L133.428 172.961ZM135.699 178.063L132.586 179.449C132.06 179.683 131.703 180.023 131.516 180.468C131.333 180.923 131.348 181.389 131.561 181.867C131.782 182.364 132.112 182.672 132.551 182.792C132.99 182.912 133.472 182.855 133.998 182.621L137.112 181.234L135.699 178.063Z" fill="#19183A"/>
<path d="M122.527 175.836L125.813 187.294L121.768 188.454C121.009 188.672 120.301 188.719 119.645 188.597C118.988 188.474 118.425 188.192 117.954 187.75C117.473 187.311 117.129 186.732 116.924 186.015C116.691 185.205 116.699 184.459 116.948 183.777C117.196 183.096 117.634 182.532 118.26 182.086L114.268 178.204L116.021 177.701L120.245 181.867L119.078 181.569L122.277 180.651L121.02 176.268L122.527 175.836ZM122.674 182.036L120.09 182.777C119.639 182.906 119.269 183.106 118.98 183.378C118.692 183.649 118.503 183.975 118.412 184.356C118.311 184.74 118.323 185.148 118.446 185.578C118.573 186.019 118.779 186.37 119.065 186.632C119.343 186.908 119.677 187.084 120.065 187.161C120.454 187.238 120.873 187.212 121.325 187.083L123.908 186.342L122.674 182.036Z" fill="#19183A"/>
<path d="M112.491 178.525L109.92 190.924L108.082 191.182L102.192 179.972L103.856 179.739L105.212 182.376L110.251 181.667L110.827 178.759L112.491 178.525ZM109.96 183.162L105.904 183.733L109.064 189.897L108.621 189.959L109.96 183.162Z" fill="#19183A"/>
<path d="M100.864 179.977V191.897H99.5517L92.7037 182.265L93.2957 182.201V191.897H91.7117V179.977H93.0237L99.8397 189.673L99.2957 189.737V179.977H100.864Z" fill="#19183A"/>
<path d="M89.1605 179.802L87.5016 191.606L83.6356 191.063C82.442 190.895 81.4357 190.506 80.6167 189.895C79.7977 189.285 79.2076 188.502 78.8464 187.546C78.4837 186.601 78.3863 185.532 78.554 184.338C78.7203 183.155 79.1087 182.154 79.7193 181.335C80.3299 180.516 81.1137 179.921 82.0708 179.549C83.0263 179.188 84.1009 179.091 85.2945 179.259L89.1605 179.802ZM87.4074 181.01L85.0783 180.683C84.2016 180.559 83.4203 180.638 82.7346 180.919C82.0383 181.198 81.4691 181.646 81.027 182.262C80.5834 182.889 80.2978 183.657 80.1701 184.565C80.041 185.484 80.1092 186.302 80.3748 187.018C80.6299 187.732 81.0543 188.314 81.6482 188.764C82.23 189.223 82.954 189.513 83.8202 189.635L86.1493 189.962L87.4074 181.01Z" fill="#19183A"/>
<path d="M73.2922 176.768L70.0066 188.226L68.4994 187.794L71.785 176.335L73.2922 176.768Z" fill="#19183A"/>
<path d="M66.3261 174.583L61.4778 185.473L60.2793 184.939L57.941 173.355L58.5079 173.537L54.5641 182.395L53.1171 181.75L57.9654 170.861L59.164 171.395L61.447 183.025L60.924 182.862L64.8937 173.946L66.3261 174.583Z" fill="#19183A"/>
<path d="M51.6556 166.908C52.3702 167.354 52.9514 167.894 53.3992 168.526C53.8414 169.167 54.1371 169.861 54.2864 170.608C54.4357 171.356 54.4392 172.125 54.2968 172.916C54.1454 173.702 53.8351 174.471 53.3659 175.221C52.8911 175.981 52.3338 176.601 51.6938 177.082C51.0539 177.563 50.3654 177.9 49.6282 178.093C48.891 178.286 48.1403 178.32 47.3759 178.195C46.6059 178.079 45.8636 177.797 45.149 177.351C44.4525 176.915 43.9046 176.403 43.5055 175.814C43.0972 175.22 42.8247 174.609 42.6878 173.983C42.5419 173.351 42.526 172.762 42.6402 172.217L44.1988 172.38C44.0666 173.115 44.1418 173.809 44.4246 174.464C44.7073 175.119 45.206 175.669 45.9206 176.116C46.6262 176.557 47.3594 176.782 48.1204 176.792C48.8722 176.797 49.5885 176.597 50.2691 176.192C50.9497 175.787 51.5388 175.187 52.0362 174.39C52.5279 173.603 52.8066 172.815 52.8721 172.026C52.9285 171.231 52.79 170.497 52.4564 169.823C52.1137 169.144 51.5896 168.583 50.884 168.143C50.2689 167.758 49.6306 167.542 48.9692 167.493C48.3077 167.445 47.6881 167.561 47.1104 167.841C46.5327 168.121 46.0544 168.565 45.6757 169.171L45.2857 169.795L45.0312 168.844L48.939 171.285L48.2183 172.439L43.5778 169.539L44.1374 168.643C44.5783 167.938 45.0989 167.377 45.6992 166.959C46.2996 166.542 46.9395 166.263 47.619 166.121C48.2929 165.989 48.9781 165.989 49.6746 166.123C50.3711 166.256 51.0314 166.518 51.6556 166.908Z" fill="#19183A"/>
<path d="M34.6734 152.773C35.1231 153.272 35.4316 153.798 35.599 154.351C35.7585 154.91 35.7678 155.455 35.6268 155.984C35.4707 156.512 35.1667 156.979 34.7149 157.386C34.3265 157.736 33.9214 157.971 33.4996 158.093C33.0699 158.221 32.6553 158.279 32.2557 158.265C31.8489 158.244 31.4779 158.191 31.1425 158.105C30.792 158.019 30.509 157.943 30.2933 157.879L29.2907 157.555C28.9489 157.446 28.6024 157.356 28.2512 157.285C27.8999 157.214 27.557 157.2 27.2225 157.242C26.88 157.292 26.5779 157.435 26.3163 157.671C26.0072 157.949 25.8423 158.284 25.8218 158.676C25.8013 159.068 25.9302 159.418 26.2086 159.727C26.4869 160.036 26.8219 160.201 27.2136 160.222C27.6053 160.242 27.9597 160.11 28.2767 159.824C28.4908 159.631 28.6544 159.391 28.7677 159.102C28.8811 158.814 28.965 158.508 29.0197 158.186C29.0664 157.872 29.1012 157.567 29.1241 157.274L29.9485 147.812L31.2654 149.275L30.6191 157.5C30.5922 157.868 30.5455 158.255 30.479 158.659C30.4125 159.064 30.2972 159.462 30.1332 159.853C29.9541 160.244 29.6902 160.597 29.3414 160.911C28.9133 161.296 28.4515 161.533 27.956 161.62C27.4455 161.707 26.9491 161.665 26.467 161.497C25.9849 161.328 25.5619 161.041 25.1979 160.637C24.841 160.241 24.6074 159.798 24.4971 159.309C24.3717 158.819 24.3784 158.332 24.517 157.848C24.6556 157.365 24.9311 156.937 25.3433 156.566C25.7634 156.188 26.2212 155.955 26.7167 155.868C27.2043 155.788 27.684 155.786 28.1557 155.864C28.6196 155.949 29.0335 156.05 29.3974 156.167L30.4012 156.469C30.7065 156.553 31.0462 156.627 31.4205 156.692C31.7868 156.764 32.1602 156.772 32.5408 156.717C32.9134 156.668 33.2662 156.494 33.5991 156.194C33.9954 155.838 34.1904 155.432 34.1839 154.979C34.1704 154.517 33.978 154.081 33.6069 153.668C33.3713 153.407 33.1172 153.212 32.8444 153.085C32.5716 152.957 32.2925 152.878 32.0071 152.848C31.7145 152.81 31.4279 152.803 31.1473 152.826C30.8587 152.856 30.5812 152.891 30.3148 152.929L27.0503 153.393L25.9048 152.121L29.7995 151.52C30.1048 151.461 30.4584 151.415 30.8603 151.383C31.2623 151.351 31.6809 151.362 32.1162 151.415C32.5515 151.468 32.9904 151.597 33.4328 151.801C33.8602 152.005 34.2737 152.329 34.6734 152.773Z" fill="#19183A"/>
<path d="M22.8575 136.97L12.1439 142.196L10.4325 138.687C9.90412 137.604 9.66404 136.552 9.71227 135.531C9.7605 134.511 10.0797 133.584 10.67 132.75C11.2506 131.921 12.0826 131.242 13.1659 130.714C14.2397 130.19 15.2868 129.952 16.3072 130.001C17.3276 130.049 18.2595 130.366 19.1029 130.951C19.9367 131.541 20.6177 132.378 21.1461 133.462L22.8575 136.97ZM20.8759 136.192L19.8449 134.078C19.4567 133.283 18.9546 132.679 18.3385 132.267C17.7178 131.846 17.0282 131.625 16.2699 131.603C15.502 131.586 14.7058 131.778 13.8814 132.181C13.0473 132.587 12.4077 133.101 11.9627 133.722C11.513 134.333 11.2678 135.01 11.2271 135.754C11.1721 136.493 11.3363 137.255 11.7198 138.041L12.7508 140.155L20.8759 136.192Z" fill="#19183A"/>
<path d="M17.5411 125.328L6.20451 129.011L3.80654 121.631L5.17607 121.186L7.0895 127.075L10.6807 125.908L8.86614 120.323L10.2357 119.878L12.0502 125.463L15.687 124.281L13.7736 118.392L15.1431 117.947L17.5411 125.328Z" fill="#19183A"/>
<path d="M13.6546 109.708C13.7861 110.454 13.7699 111.161 13.6061 111.829C13.4317 112.499 13.1409 113.091 12.7336 113.607C12.3264 114.123 11.84 114.529 11.2746 114.823L10.487 113.581C11.1933 113.164 11.7022 112.641 12.0137 112.012C12.3129 111.374 12.3957 110.677 12.2624 109.921C12.1809 109.459 12.036 109.068 11.8279 108.747C11.6197 108.426 11.3676 108.194 11.0716 108.052C10.7633 107.9 10.4306 107.856 10.0734 107.919C9.57972 108.006 9.21605 108.216 8.98244 108.55C8.73647 108.875 8.58718 109.318 8.53458 109.88L8.25343 112.155C8.14084 113.052 7.84075 113.777 7.35315 114.329C6.86555 114.88 6.25408 115.221 5.51876 115.351C4.87798 115.464 4.28912 115.41 3.7522 115.191C3.20291 114.963 2.74355 114.6 2.37411 114.102C1.99232 113.595 1.73937 112.99 1.61527 112.286C1.49117 111.582 1.50517 110.924 1.65726 110.313C1.80749 109.69 2.06276 109.142 2.42307 108.667C2.77287 108.193 3.20422 107.814 3.71712 107.529L4.50199 108.755C3.88466 109.124 3.45237 109.59 3.20513 110.153C2.94738 110.719 2.87871 111.343 2.9991 112.026C3.07319 112.446 3.21248 112.806 3.41697 113.106C3.60909 113.397 3.85746 113.607 4.16207 113.738C4.45432 113.86 4.78428 113.888 5.15194 113.823C5.58263 113.747 5.94197 113.543 6.22996 113.211C6.51795 112.878 6.70215 112.418 6.78255 111.83L7.01826 109.757C7.13889 108.783 7.42014 108.013 7.86202 107.448C8.3039 106.882 8.91352 106.531 9.69086 106.394C10.3316 106.281 10.9285 106.349 11.4815 106.598C12.0326 106.837 12.5019 107.225 12.8892 107.764C13.2642 108.293 13.5193 108.941 13.6546 109.708Z" fill="#19183A"/>
<path d="M12.3991 99.1167L0.486363 99.5327L0.431641 97.9656L12.3444 97.5496L12.3991 99.1167Z" fill="#19183A"/>
<path d="M13.024 86.9912C12.936 87.8292 12.706 88.588 12.3343 89.2675C11.952 89.946 11.4577 90.5161 10.8514 90.9779C10.2451 91.4397 9.55512 91.7801 8.78132 91.9991C8.00864 92.2075 7.18206 92.2654 6.30158 92.1729C5.41048 92.0792 4.6087 91.8501 3.89623 91.4857C3.18376 91.1212 2.57902 90.6501 2.08203 90.0723C1.58504 89.4945 1.22537 88.8346 1.00305 88.0927C0.770111 87.3496 0.697685 86.559 0.785768 85.721C0.87162 84.9041 1.09176 84.1872 1.4462 83.5702C1.80175 82.9426 2.23102 82.43 2.734 82.0324C3.2381 81.6242 3.76008 81.3519 4.29996 81.2156L4.83701 82.6878C4.11849 82.8912 3.52701 83.2634 3.06257 83.8045C2.59813 84.3455 2.32187 85.0351 2.23379 85.8732C2.14682 86.7006 2.26559 87.4585 2.59008 88.1469C2.91568 88.8246 3.4096 89.3806 4.07184 89.8149C4.73407 90.2491 5.53195 90.5153 6.46548 90.6134C7.38839 90.7105 8.21888 90.6154 8.95693 90.3283C9.6961 90.0306 10.2954 89.5841 10.7548 88.9889C11.2153 88.3831 11.489 87.6664 11.576 86.839C11.6518 86.1176 11.5666 85.449 11.3203 84.8333C11.074 84.2175 10.6981 83.7114 10.1928 83.3151C9.68744 82.9188 9.0794 82.6832 8.36864 82.6085L7.63668 82.5316L8.38026 81.8858L7.89859 86.4685L6.54604 86.3264L7.11802 80.8844L8.16823 80.9947C8.99568 81.0817 9.7285 81.3035 10.3667 81.6602C11.0049 82.0169 11.5365 82.4696 11.9615 83.0183C12.3759 83.566 12.6758 84.182 12.8612 84.8665C13.0467 85.551 13.101 86.2592 13.024 86.9912Z" fill="#19183A"/>
<path d="M13.7299 80.1689L2.16401 77.2852L2.48141 76.0121L13.484 71.6977L13.4029 72.2876L3.99487 69.942L4.37808 68.405L15.944 71.2887L15.6266 72.5618L4.56967 76.8296L4.63918 76.2863L14.1093 78.6475L13.7299 80.1689Z" fill="#19183A"/>
<path d="M21.3063 58.0213L13.1193 48.3616L14.0473 46.7543L26.5063 49.0146L25.6663 50.4695L22.7535 49.9148L20.2095 54.3211L22.1463 56.5663L21.3063 58.0213ZM19.2104 53.1716L21.2584 49.6243L14.4551 48.3199L14.6791 47.9319L19.2104 53.1716Z" fill="#19183A"/>
<path d="M30.4686 44.2453C29.9499 44.9093 29.3528 45.4309 28.6774 45.8102C27.9937 46.1829 27.2724 46.4045 26.5135 46.4749C25.7546 46.5453 24.9891 46.4683 24.2168 46.2439C23.4511 46.0112 22.7194 45.6223 22.0218 45.0772C21.3157 44.5256 20.7572 43.9064 20.3461 43.2198C19.935 42.5332 19.6718 41.8132 19.5566 41.0598C19.4413 40.3065 19.4859 39.5563 19.6906 38.8092C19.8868 38.0556 20.2443 37.3468 20.7631 36.6828C21.2688 36.0355 21.8354 35.5442 22.4629 35.2088C23.097 34.865 23.7327 34.6577 24.3699 34.5871C25.0138 34.508 25.6007 34.5538 26.1308 34.7242L25.8061 36.2573C25.089 36.049 24.3901 36.0512 23.7095 36.264C23.029 36.4767 22.4293 36.9151 21.9105 37.5792C21.3982 38.2348 21.0973 38.9405 21.0077 39.6962C20.9247 40.4435 21.0489 41.1767 21.3804 41.896C21.7119 42.6152 22.2475 43.2637 22.9872 43.8416C23.7184 44.413 24.4731 44.7724 25.2511 44.9201C26.0357 45.0593 26.7805 44.9983 27.4856 44.7369C28.1972 44.4672 28.8091 44.0045 29.3213 43.3489C29.7679 42.7773 30.0499 42.1651 30.1673 41.5124C30.2847 40.8596 30.2342 40.2313 30.0156 39.6274C29.7971 39.0235 29.4063 38.5016 28.8431 38.0616L28.2631 37.6085L29.2359 37.4548L26.399 41.086L25.3273 40.2487L28.6962 35.9367L29.5283 36.5868C30.1839 37.099 30.6879 37.6755 31.0401 38.3162C31.3923 38.9568 31.6032 39.6225 31.6728 40.313C31.734 40.997 31.6619 41.6784 31.4565 42.3572C31.2511 43.0359 30.9218 43.6653 30.4686 44.2453Z" fill="#19183A"/>
<path d="M35.4405 38.1023L27.1601 29.5278L32.7422 24.1372L33.7425 25.1731L29.2884 29.4744L31.9114 32.1906L36.1354 28.1116L37.1357 29.1475L32.9117 33.2265L35.5681 35.9772L40.0222 31.6759L41.0225 32.7118L35.4405 38.1023Z" fill="#19183A"/>
<path d="M43.2422 30.8157L36.2358 21.1722L37.2972 20.4011L48.4989 24.1684L48.0576 24.5681L42.3584 16.7239L43.6399 15.7928L50.6463 25.4363L49.5849 26.2075L38.3714 22.3696L38.7739 21.9981L44.5107 29.8941L43.2422 30.8157Z" fill="#19183A"/>
<path d="M58.0377 21.5183C57.2937 21.9139 56.5361 22.1476 55.7648 22.2194C54.998 22.2768 54.2489 22.1858 53.5176 21.9465C52.7958 21.7021 52.1324 21.3179 51.5276 20.7938C50.9227 20.2698 50.4125 19.6169 49.9969 18.8352C49.5762 18.0441 49.3178 17.2513 49.2215 16.4568C49.1253 15.6623 49.1777 14.8975 49.3788 14.1624C49.5799 13.4273 49.9258 12.7601 50.4166 12.1609C50.9024 11.5523 51.5173 11.0501 52.2613 10.6545C52.9865 10.2689 53.704 10.0505 54.4137 9.99937C55.1328 9.94318 55.7978 10.0124 56.4087 10.2071C57.029 10.3967 57.5466 10.6772 57.9616 11.0486L56.9981 12.3038C56.4427 11.8501 55.8109 11.582 55.1026 11.4995C54.3893 11.4077 53.6701 11.5545 52.9449 11.9401C52.2103 12.3307 51.6484 12.853 51.2591 13.5069C50.8793 14.1558 50.6946 14.8762 50.7049 15.6681C50.7152 16.4599 50.9407 17.2703 51.3813 18.0991C51.817 18.9184 52.3602 19.5538 53.0109 20.0051C53.6616 20.4565 54.3622 20.7061 55.1126 20.7541C55.8724 20.7971 56.6196 20.6233 57.3542 20.2327C58.0794 19.8471 58.6058 19.3377 58.9335 18.7044C59.2562 18.0617 59.3848 17.3832 59.3191 16.6691L60.8986 16.5723C60.9744 17.1239 60.9175 17.7099 60.7279 18.3302C60.5476 18.9455 60.2332 19.5355 59.7845 20.1003C59.3452 20.66 58.7629 21.1327 58.0377 21.5183Z" fill="#19183A"/>
<path d="M67.4415 17.2049L65.5755 12.078L59.4856 7.41564L61.1545 6.80821L66.2572 10.7231L65.6558 10.942L67.0332 4.66853L68.7021 4.0611L67.0639 11.5362L68.93 16.6632L67.4415 17.2049Z" fill="#19183A"/>
<path d="M76.2886 8.30245L75.0993 7.78643L76.02 5.80776L73.9553 5.55962L74.0904 4.27138L76.1675 4.50054L75.7217 2.40339L76.9894 2.13394L77.4351 4.23109L79.2394 3.17693L79.8868 4.29884L78.1015 5.36533L79.7318 6.80176L78.8709 7.75356L77.2093 6.32377L76.2886 8.30245Z" fill="#19183A"/>
</svg>
