<svg width="32" height="32" viewBox="0 0 32 32" fill="none" xmlns="http://www.w3.org/2000/svg">
<path d="M12.2156 7.12877C13.1018 8.0912 13.5904 9.35629 13.5824 10.6674C13.5824 13.5844 10.9864 15.9164 7.71918 15.9164C6.53714 15.9278 5.37568 15.6054 4.36706 14.986C3.66752 15.5792 3.22273 16.3064 3.22273 16.924C3.22273 17.7365 3.88991 18.2728 4.86846 18.2728H11.7587C13.8816 18.2728 15.3656 19.2803 15.3656 21.0801C15.3656 24.7365 10.1696 27.9867 6.17453 27.9867C2.65258 27.9867 0 26.386 0 24.2531C0 22.823 1.53656 21.7261 3.32382 21.2507V20.9989C2.06626 20.5926 1.30203 19.7069 1.30203 18.5612C1.30203 17.3424 2.30484 16.0911 4.01122 14.7992C3.32626 14.351 2.76148 13.7405 2.36661 13.0214C1.97174 12.3023 1.7589 11.4967 1.74682 10.6755C1.74682 7.64473 4.37514 5.25586 7.69896 5.25586C11.0228 5.25586 12.2156 7.12877 12.2156 7.12877ZM13.9746 22.7621C13.9746 21.8073 13.3317 21.2467 11.9083 21.2467H5.2526C3.63517 21.2467 2.7375 22.0877 2.7375 23.209C2.7375 24.9803 5.0019 26.2966 8.18419 26.2397C11.5363 26.1869 13.9665 24.6431 13.9665 22.7621M10.3637 10.6714C10.3637 7.55535 9.35682 5.70276 7.71109 5.70276C5.9764 5.70276 4.9372 7.53504 4.9372 10.6714C4.9372 13.6738 5.96831 15.4695 7.703 15.4695C9.34873 15.4695 10.3556 13.7307 10.3556 10.6714" fill="#6100FF"/>
<path d="M10.7383 6.92911C11.1426 5.40966 11.9514 3.76426 13.3262 3.2036C14.4907 2.72827 15.5623 3.11016 15.9626 4.08928C16.3103 4.95463 16.0111 5.75905 15.2671 6.06375C13.8923 6.62034 13.1159 5.03182 12.2101 5.40153C11.5349 5.67779 11.175 6.66909 10.9728 7.51414" fill="#6100FF"/>
<path d="M17.6172 28.5888V8.27524L15.6602 7.4627L20.9411 5.13477V15.9578C22.4493 14.9218 24.5439 13.5446 25.9955 13.5446C29.57 13.5446 32.0002 16.4372 32.0002 20.6462C32.0002 25.3061 29.1252 28.5888 24.5722 28.5888C22.8338 28.5785 21.1357 28.062 19.6835 27.1018L17.6172 28.5888ZM28.9595 21.6294C28.9595 17.8145 27.0873 15.1737 24.6045 15.1737C23.7635 15.1737 22.6757 15.6775 21.4465 16.3925V24.2132C21.7255 26.6509 23.2904 28.1378 25.1059 28.1378C27.3946 28.1378 28.9595 25.4442 28.9595 21.6375" fill="#6100FF"/>
</svg>
