<svg width="256" height="256" viewBox="0 0 256 256" fill="none" xmlns="http://www.w3.org/2000/svg">
<rect width="256" height="256" fill="#19183A"/>
<path d="M113.078 94.2483C116.566 98.0362 118.489 103.015 118.457 108.175C118.457 119.656 108.24 128.834 95.3809 128.834C90.7286 128.879 86.1574 127.61 82.1877 125.173C79.4345 127.507 77.6839 130.369 77.6839 132.8C77.6839 135.998 80.3098 138.108 84.1611 138.108H111.279C119.635 138.108 125.475 142.074 125.475 149.157C125.475 163.548 105.025 176.34 89.3015 176.34C75.4399 176.34 65 170.04 65 161.646C65 156.017 71.0475 151.7 78.0818 149.829V148.838C73.1323 147.239 70.1245 143.753 70.1245 139.244C70.1245 134.447 74.0713 129.522 80.7872 124.437C78.0914 122.673 75.8685 120.27 74.3144 117.44C72.7603 114.61 71.9226 111.439 71.8751 108.207C71.8751 96.279 82.2195 86.877 95.3013 86.877C108.383 86.877 113.078 94.2483 113.078 94.2483ZM120.001 155.777C120.001 152.02 117.47 149.813 111.868 149.813H85.673C79.3072 149.813 75.7741 153.123 75.7741 157.536C75.7741 164.508 84.6863 169.688 97.211 169.465C110.404 169.257 119.969 163.181 119.969 155.777M105.789 108.191C105.789 95.9272 101.826 88.6358 95.349 88.6358C88.5217 88.6358 84.4317 95.8473 84.4317 108.191C84.4317 120.008 88.4899 127.075 95.3172 127.075C101.794 127.075 105.757 120.232 105.757 108.191" fill="white"/>
<path d="M107.265 93.464C108.856 87.4838 112.039 81.0079 117.45 78.8013C122.033 76.9305 126.251 78.4336 127.826 82.2871C129.195 85.693 128.017 88.859 125.089 90.0582C119.678 92.2488 116.622 85.9968 113.058 87.4519C110.4 88.5392 108.983 92.4407 108.188 95.7666" fill="white"/>
<path d="M134.335 178.712V98.7625L126.633 95.5645L147.417 86.4023V128.999C153.353 124.922 161.597 119.501 167.31 119.501C181.379 119.501 190.943 130.886 190.943 147.452C190.943 165.792 179.628 178.712 161.708 178.712C154.867 178.671 148.183 176.639 142.468 172.86L134.335 178.712ZM178.976 151.321C178.976 136.307 171.607 125.913 161.836 125.913C158.526 125.913 154.245 127.896 149.407 130.71V161.491C150.505 171.085 156.664 176.937 163.809 176.937C172.817 176.937 178.976 166.336 178.976 151.353" fill="white"/>
</svg>
